<svg width="128" height="87" viewBox="0 0 128 87" fill="none" xmlns="http://www.w3.org/2000/svg">
<path d="M112.123 50.9451C108.82 53.6859 105.164 55.0164 100.949 55.0164C93.6152 55.0164 88.8761 50.4535 88.8761 43.3925C88.8761 41.6257 89.2565 39.948 90.0018 38.4024C91.0723 36.6817 92.1766 35.3635 93.3759 34.371C95.5016 32.8224 98.161 32.002 101.069 32.002C104.716 32.002 108.173 33.2864 111.062 35.7169L111.749 36.2946L128 9.20576L127.451 8.78788C120.126 3.23554 110.498 0.0399449 101.023 0.0215088V0L99.1241 0.0614537C98.8879 0.0645264 98.6517 0.0706717 98.4155 0.0798898C88.3332 0.522356 80.9409 2.92212 73.6959 8.09345L73.6683 8.11189C66.6379 13.6058 63.0767 19.0691 59.8499 26.2837V0.0798898H28.3913V55.1332H0V55.9013C0 74.909 10.3983 86.1888 28.5692 86.9508V87H36.9921C50.5375 87 61.1596 83.3435 69.4353 75.8216C77.2018 83.1376 87.6707 87 99.7682 87C110.341 87 120.436 83.7552 127.463 78.0984L127.966 77.6928L112.832 50.3552L112.12 50.9451H112.123ZM11.9473 74.9797C8.5456 71.5229 6.47515 66.7111 5.785 60.6702H28.5692V81.4169C21.41 81.082 15.8213 78.9188 11.9473 74.9797ZM83.542 53.4647C83.9438 52.3555 84.3088 51.3569 84.6555 50.4166C87.186 56.7248 93.2409 60.5503 100.949 60.5503C104.584 60.5503 107.854 59.8129 110.918 58.3011L120.743 76.0489C114.933 79.5426 107.519 81.463 99.7713 81.463C89.1552 81.463 80.0207 78.1322 73.3002 71.824C77.4411 66.9507 80.8857 60.7777 83.542 53.4616V53.4647ZM66.2238 71.274C61.175 76.0274 55.1323 79.0417 47.7492 80.489C44.4396 81.1373 40.8201 81.4661 36.9952 81.4661H34.0965V60.7623C44.277 60.0126 50.3841 56.3899 55.7305 47.9861C56.4973 46.7786 57.2764 45.4358 58.0371 43.9916C58.5984 42.9285 59.1843 41.7547 59.7763 40.5011C60.9449 38.0214 62.1473 35.2253 63.4479 31.9498C63.6534 31.4274 63.8773 30.8897 64.1104 30.3428L64.135 30.2782C66.4048 23.2387 70.6285 17.2777 76.3522 13.0374C81.7047 9.07057 88.1461 6.65543 95.5046 5.85346V27.1011C93.3943 27.688 91.5171 28.6958 89.781 30.1676C87.8056 31.6886 86.2351 33.5998 85.1156 35.8429C82.4715 40.203 80.4716 45.7246 78.3551 51.5719C75.8583 58.4517 72.7879 63.9549 68.966 68.398C68.0734 69.4365 67.1532 70.4014 66.23 71.2709L66.2238 71.274ZM33.9156 5.61687H54.3226V39.1214C48.7707 50.5918 43.9059 54.4787 33.9156 55.2346V5.61687ZM101.023 26.4712V5.55849C107.829 5.57078 114.737 7.44511 120.568 10.8466L109.976 28.5022C107.173 27.1717 104.109 26.4743 101.066 26.4743C101.05 26.4743 101.038 26.4743 101.023 26.4743V26.4712Z" fill="#FFFF90"/>
</svg>
