<svg width="134" height="54" viewBox="0 0 134 54" fill="none" xmlns="http://www.w3.org/2000/svg">
<path d="M67.9287 0C68.5706 0 69.2193 0.0463357 69.8555 0.138672C71.1849 0.329128 72.3369 0.755837 73.3799 1.44238C73.9875 1.84059 74.5381 2.29125 75.0654 2.81641C75.6156 3.36463 76.0458 4.02824 76.3896 4.84766C76.6877 5.55744 76.9112 6.14612 77.0889 6.69434C77.1519 6.88476 77.1861 7.0641 77.209 7.23145C77.249 7.24295 77.2891 7.25412 77.3291 7.26562C77.8048 7.4041 78.298 7.54824 78.7852 7.76172C79.8684 8.24068 80.7399 8.91651 81.3818 9.77637C81.8118 10.3478 82.3679 11.2481 82.2705 12.4482C82.173 13.6024 81.7428 14.6297 80.9805 15.5068C80.1608 16.4474 79.1863 17.1916 78.0859 17.7109C78.0114 17.7456 77.9256 17.7808 77.834 17.8154L77.7822 17.8379C77.7364 18.0167 77.7419 18.2131 77.8105 18.4668C78.2117 20.0017 78.0233 21.5431 77.2324 23.3203C76.7911 24.3071 76.315 25.1905 75.7705 26.0273C75.7304 26.1024 75.6726 26.2117 75.5752 26.3271C75.5752 26.4022 75.5693 26.4835 75.5693 26.5586C75.558 26.6853 75.5465 26.8237 75.5293 26.9678C75.9075 27.2216 76.2859 27.4816 76.6641 27.7471C77.3289 28.2145 77.9942 28.682 78.6533 29.1553C79.794 29.9747 80.7802 30.7418 81.7432 31.7402C82.5055 32.5309 83.3994 33.2298 83.7949 34.2686C83.8236 34.3493 83.8581 34.4242 83.8867 34.5049C84.0873 35.001 84.2993 35.4626 84.5342 35.8779C85.1363 36.9513 85.6349 38.0831 86.0244 39.2373L86.2246 39.8262L86.2139 39.8203C86.3858 40.3396 86.5693 40.8706 86.7354 41.4072C87.0911 42.5497 87.0503 43.7561 86.6094 45.1006C86.1506 46.5028 85.2104 47.4378 84.4424 48.0957C84.1501 48.3381 83.8575 48.58 83.5596 48.8281L83.1416 49.1748C82.941 49.3422 81.7255 50.0979 81.4561 50.2422C79.8626 51.0443 78.0455 51.3964 76.3203 51.835C74.4518 52.3139 72.572 52.7473 70.6807 53.1396C69.2133 53.4455 67.5048 54.0221 66.0088 53.999C64.6677 53.9817 63.2063 53.376 61.9512 52.9316C60.8048 52.5219 59.7041 52.1062 58.6035 51.5811C58.122 51.3502 57.6288 51.0963 57.0957 50.8135C56.5056 50.502 55.9038 50.1791 55.3193 49.8271C54.5284 49.354 53.7429 48.8518 53.0723 48.4189C52.7971 48.2401 52.5505 48.0146 52.3613 47.7607C52.2006 47.5414 51.1235 46.9649 50.8252 46.7109C50.6361 46.5552 50.4468 46.399 50.252 46.249C49.9482 46.0066 49.6328 45.7524 49.3232 45.4697C48.4751 44.6907 47.7988 44.0213 47.1855 43.375C46.4692 42.625 45.925 41.9784 45.4551 41.3438C44.8589 40.53 44.4405 39.6639 44.2227 38.7637C44.0851 38.1981 44.1593 37.6383 44.251 37.165C44.3599 36.588 44.5202 36.0048 44.7266 35.4336C44.8354 35.1279 44.9785 34.8566 45.1045 34.6201C45.1733 34.4989 45.2426 34.372 45.2998 34.2451C45.7927 33.1659 46.5661 32.375 47.2539 31.6768C47.9303 30.9842 48.7563 30.4482 49.7021 30.0674C49.3525 28.9882 48.8476 27.4408 48.3604 25.9404C47.5636 23.4936 46.7842 21.1445 46.7842 21.1445C46.7842 26.148 46.9043 31.377 46.9043 31.377H44.8184C44.8184 31.377 44.9219 23.8395 44.9219 17.376L44.7783 16.9668H48.2119C48.2184 16.9874 48.9486 19.3027 49.7246 21.6582C50.5163 24.0956 51.3703 26.5506 51.3809 26.5811C51.3809 21.3809 51.2612 16.9852 51.2607 16.9668H53.3076C53.3073 16.9833 53.2441 20.7019 53.2441 23.9668C53.2441 25.75 53.261 27.4409 53.2725 28.751C53.275 28.7439 53.7443 28.4962 54.1787 28.2314C54.6658 27.9372 55.1527 27.6428 55.6455 27.3486C55.8117 27.2505 55.9611 27.2106 56.0527 27.1875L56.1045 27.1758C56.2133 27.1412 56.3277 27.1241 56.4365 27.124C56.5053 27.124 56.5746 27.1349 56.6377 27.1465C56.7122 27.037 56.7869 26.9327 56.8613 26.8232C56.8956 26.7716 56.9298 26.7256 56.9697 26.6797L57.251 26.2812C57.5661 25.8311 57.881 25.3808 58.1963 24.9307C58.3338 24.7345 58.5064 24.5734 58.707 24.4521C57.9275 23.4019 57.7148 22.1835 57.623 21.2197C57.5371 20.2965 57.5204 19.367 57.5146 18.4668C56.8038 18.3225 56.1158 18.0575 55.4854 17.6709C54.4021 17.0073 53.6337 16.0898 53.1924 14.9414C52.8026 13.9316 52.8658 12.8984 53.3701 11.877C53.886 10.844 54.6543 10.0304 55.6631 9.46484C56.2878 9.11275 56.93 8.78913 57.5547 8.47754C57.7267 7.14446 58.0131 5.97288 58.4258 4.90527C58.8728 3.7512 59.675 2.76421 60.8154 1.97363C61.7555 1.32151 62.7881 0.837114 63.8828 0.53125C64.754 0.28314 65.7111 0.132366 66.8975 0.0400391C67.2412 0.0112017 67.5907 9.96917e-06 67.9287 0ZM62.7021 35.5664C62.4614 35.6126 62.2203 35.6534 61.9854 35.7168C61.1198 35.9419 60.2485 36.161 59.3887 36.4092C58.2939 36.7208 57.2102 37.0499 56.1211 37.3789C56.064 37.3962 56.0068 37.4305 55.9668 37.4766C55.7376 37.7304 55.5082 37.9787 55.3018 38.2441C54.8662 38.804 54.8433 39.3989 55.2217 39.999C55.4165 40.3049 55.6231 40.6051 55.8408 40.8936C56.2764 41.4821 56.7352 42.0531 57.165 42.6475C57.6293 43.2938 58.0706 43.9582 58.5234 44.6104C59.0907 45.4239 59.6754 46.2257 60.2256 47.0508C61.0452 48.28 61.6469 49.6307 62.2832 50.958C62.3748 51.1542 62.4669 51.3617 62.5186 51.5752C62.5815 51.8349 62.7423 52.0086 62.9658 52.124C63.1663 52.2278 63.3781 52.3201 63.5957 52.3721C64.0199 52.4759 64.4501 52.5685 64.8857 52.6436C65.5677 52.7647 66.2499 52.8625 66.7256 52.9375C67.3961 52.8798 67.8608 52.845 68.3193 52.7988L68.3359 52.793C68.7372 52.7526 68.8975 52.5797 68.8574 52.1758C68.8116 51.7141 68.7719 51.2403 68.6572 50.7959C68.4108 49.8553 68.1408 48.9203 67.8428 47.9971C67.5963 47.2355 67.2925 46.4855 67.0117 45.7354C66.771 45.1065 66.5306 44.4717 66.2842 43.8428C66.1065 43.3811 65.9003 42.9363 65.7227 42.4746C65.5851 42.1169 65.4649 41.7532 65.333 41.3896C65.0693 40.6625 64.7991 39.9351 64.5469 39.208C64.5184 39.1329 64.5189 38.9942 64.5703 38.9424C64.6677 38.8331 64.7879 38.8794 64.9023 38.9658C65.0915 39.1044 65.2868 39.2371 65.4932 39.3525C65.6995 39.4679 65.9404 39.4216 66.0264 39.2715C66.1121 39.1216 66.0433 38.937 65.8486 38.7871C65.757 38.7178 65.6651 38.6424 65.5791 38.5615C65.1379 38.1346 64.702 37.7023 64.2607 37.2754C63.98 36.9984 63.6822 36.7384 63.6133 36.3174C63.5961 36.2251 63.5555 36.1383 63.5098 36.0518C63.3837 35.7981 62.9259 35.5265 62.7021 35.5664ZM54.0352 42.1914C53.9034 43.5936 53.6219 44.9616 53.1348 46.2773C53.0201 46.5773 53.055 46.8545 53.2383 47.1025C53.3528 47.2525 53.5076 47.3913 53.668 47.4951C54.3959 47.9683 55.1358 48.4356 55.8809 48.8857C56.4482 49.2204 57.0326 49.5323 57.6113 49.8438C58.0985 50.1035 58.5862 50.3522 59.0791 50.5889C59.807 50.9351 60.5407 51.2755 61.2744 51.6045C61.3546 51.6449 61.5095 51.6506 61.5439 51.6045L61.5381 51.5986C61.6126 51.5121 61.6475 51.3732 61.6475 51.2578C61.6474 51.154 61.578 51.0502 61.5322 50.9521C61.3832 50.6463 61.2226 50.3516 61.085 50.04C60.5291 48.7995 59.847 47.6283 59.0791 46.5088C58.569 45.7586 58.0245 45.0307 57.5029 44.292C57.0158 43.5996 56.5337 42.8955 56.0352 42.2031C55.8633 41.9666 55.6512 41.7649 55.4736 41.5342C55.0208 40.9629 54.5913 40.3679 54.3047 39.6465C54.213 40.5236 54.1154 41.3547 54.0352 42.1914ZM73.7012 32.8193C73.6151 32.6464 73.4316 32.5772 73.2598 32.6406C73.1508 32.681 73.0079 32.8374 73.0137 32.9297C73.0423 33.2931 73.0818 33.6685 73.2021 34.0088C73.4658 34.7417 73.7983 35.4457 74.0791 36.1729C74.4116 37.0384 74.7505 37.9041 75.0371 38.7812C75.3924 39.8604 75.7415 40.9516 76.0166 42.0596C76.24 42.9364 76.2749 43.8422 76.04 44.7363C75.8623 45.3942 75.4838 45.8967 74.8477 46.168C74.7274 46.2199 74.5834 46.3065 74.5146 46.0762C74.1707 44.9392 73.581 43.9285 72.9219 42.959C72.4347 42.2434 71.93 41.5282 71.4199 40.8242C70.8926 40.0914 70.3424 39.3755 69.8037 38.6484C69.2764 37.9444 68.7549 37.2344 68.2275 36.5303C67.6486 35.7627 67.0807 34.9835 66.4961 34.2217C66.37 34.0487 66.1979 33.887 66.0146 33.7832C65.9114 33.7256 65.7104 33.749 65.6016 33.8125C65.5217 33.8647 65.4648 34.0601 65.4932 34.1582C65.5619 34.3774 65.6653 34.5967 65.8027 34.7871C66.4734 35.7105 67.1614 36.6167 67.832 37.54C68.3594 38.2729 68.8751 39.012 69.4082 39.7393C70.0444 40.6048 70.7094 41.4529 71.3398 42.3242C71.787 42.9417 72.1998 43.5831 72.6182 44.2236C72.7441 44.4197 72.8296 44.6392 72.9385 44.8525C72.6633 44.5698 72.4406 44.2516 72.1826 43.9688C71.6037 43.3167 71.0528 42.6251 70.3994 42.0596C69.6371 41.3959 68.7776 40.8414 67.958 40.2471C67.6886 40.0508 67.4074 39.855 67.1094 39.6992C66.9776 39.63 66.743 39.6066 66.6455 39.6816C66.5138 39.7797 66.2791 39.912 66.3877 40.1484C66.4622 40.3158 66.5764 40.484 66.7197 40.5879C67.1551 40.9052 67.6081 41.2047 68.0664 41.4932C68.9492 42.0472 69.7633 42.6939 70.4912 43.4326C71.1675 44.1079 71.7698 44.8578 72.3945 45.585C72.618 45.8446 72.8014 46.139 73.002 46.416C72.8415 46.4333 72.7268 46.4048 72.6064 46.376C72.3829 46.3241 72.1649 46.266 71.9414 46.2256C71.1275 46.0813 70.2731 46.1626 69.5107 45.7412C69.3961 45.6722 69.2414 45.6774 69.2012 45.8271C69.1782 45.9253 69.2365 46.0581 69.2881 46.1562C69.3166 46.2197 69.4078 46.2545 69.4766 46.2891C70.0211 46.5719 70.6119 46.6472 71.208 46.6934C71.7295 46.7338 72.2568 46.7627 72.7783 46.8262C73.0992 46.8666 73.3633 47.0045 73.5811 47.293C73.8333 47.6277 73.9644 47.9978 74.1191 48.3672C74.1649 48.4826 74.1427 48.6265 74.1484 48.7246C73.8446 48.7246 73.5922 48.7131 73.3457 48.7246C73.1108 48.7362 72.9679 48.886 72.9678 49.0938C72.9678 49.3591 73.1278 49.4691 73.4658 49.4346C73.6205 49.4173 73.8102 49.3476 73.9248 49.4111C74.0394 49.4689 74.0565 49.6827 74.1367 49.8154C74.3544 50.1847 74.4636 50.5826 74.5381 50.9922C74.5668 51.1365 74.6179 51.2813 74.6924 51.4082C74.8071 51.6102 75.0023 51.6101 75.1055 51.4023C75.3742 50.8559 75.441 50.2892 75.1885 49.7402L75.0869 49.5371C74.9896 49.3203 74.9759 49.1189 75.0713 48.8916C75.2144 48.5339 75.1742 48.1932 74.9736 47.8701C74.9278 47.801 74.8988 47.7145 74.8701 47.6338C74.7785 47.3569 74.882 47.1489 75.1514 47.0508C75.6384 46.8718 76.011 46.5432 76.3662 46.1797C76.6699 45.8623 77.0028 45.5797 77.3008 45.3086C77.3523 45.9778 77.4101 46.6989 77.4502 47.4199C77.5018 48.3144 77.5411 49.2149 77.5869 50.1094C77.5926 50.2825 77.6507 50.3979 77.8398 50.4209C78.0288 50.4438 78.1435 50.3116 78.2295 50.0176C78.3727 49.5272 78.2981 49.0364 78.2637 48.5459C78.2235 47.9688 78.1376 47.3857 78.0459 46.8086C77.9656 46.2835 77.8568 45.7636 77.7422 45.25C77.7191 45.1348 77.6212 45.037 77.5469 44.916C77.7532 44.5813 77.9831 44.2056 78.2354 43.79C78.3099 44.3325 78.3899 44.8349 78.4473 45.3428C78.602 46.7567 78.7397 48.171 78.8887 49.585C78.929 49.9423 79.1864 50.1264 79.5186 49.9824C80.0058 49.7689 80.4821 49.5381 80.9521 49.2842C81.1584 49.1688 81.4161 49.0301 81.5078 48.834C81.6682 48.4879 81.7656 48.1014 81.8115 47.7207C81.9376 46.7339 82.0522 45.7406 82.1152 44.748L82.1094 44.7715C82.2355 42.8093 82.3503 40.841 82.4248 38.873C82.4591 38.0134 82.299 37.1652 81.8291 36.4209C81.4966 35.8899 81.1235 35.376 80.751 34.8682C80.6649 34.747 80.5044 34.6372 80.3555 34.6025C79.9831 34.5103 79.599 34.4646 79.2266 34.3896C78.0859 34.153 76.9223 34.1239 75.7588 34.1182C75.7014 34.1125 75.6045 34.1528 75.6045 34.1816C75.5759 34.3548 75.5013 34.5569 75.5586 34.7012C75.845 35.4858 76.1711 36.2592 76.4863 37.0322C76.9965 38.2845 77.4556 39.5544 77.7422 40.876C77.8282 41.2683 77.9253 41.6837 77.8623 42.0645C77.7649 42.6877 77.5468 43.2945 77.3633 43.9062C77.3117 44.0619 77.2092 44.2007 77.1348 44.3506C77.1234 44.3448 77.106 44.3388 77.0889 44.333V44.1768C77.0889 43.7672 77.1461 43.352 77.0889 42.9482C76.98 42.2153 76.8595 41.4647 76.6475 40.7549C76.2463 39.4333 75.7993 38.1286 75.335 36.8301C74.9567 35.7684 74.5151 34.7241 74.0967 33.6797C73.9764 33.3853 73.8444 33.0963 73.7012 32.8193ZM72.1016 50.3291C71.9813 50.3348 71.855 50.3113 71.752 50.3574C71.6489 50.4035 71.5404 50.5075 71.5059 50.6055C71.4829 50.6632 71.6032 50.8312 71.6777 50.8428C71.9643 50.8832 72.2679 50.9923 72.543 50.8193C72.6117 50.7789 72.698 50.6749 72.6865 50.6113C72.6692 50.5191 72.5947 50.3979 72.5146 50.3633C72.3943 50.3114 72.2449 50.3231 72.1016 50.3115V50.3291ZM76.0625 48.2402C75.7243 48.2288 75.3865 48.5631 75.375 48.9209C75.3636 49.3537 75.6614 49.7343 76.0225 49.7344C76.2919 49.7344 76.7221 49.2382 76.7393 48.9092C76.7564 48.5572 76.4522 48.2518 76.0625 48.2402ZM70.4688 48.9033C70.2912 48.8802 70.1648 48.9437 70.1475 49.082C70.136 49.1685 70.2619 49.3245 70.3535 49.3535C70.7146 49.4574 71.0815 49.5208 71.4482 49.6016C71.4539 49.5901 71.4541 49.5788 71.4541 49.5674C71.6145 49.5501 71.7866 49.5615 71.9355 49.5039C72.033 49.4693 72.0964 49.3366 72.1709 49.25C72.0734 49.1866 71.987 49.0769 71.8838 49.0654C71.414 48.9962 70.9386 48.9725 70.4688 48.9033ZM81.8916 33.3213C81.8 33.3617 81.6974 33.4429 81.6572 33.5352C81.5541 33.7717 81.5026 34.032 81.3994 34.2686C81.3365 34.407 81.3478 34.4872 81.4395 34.6025C81.6802 34.9084 81.9149 35.2149 82.127 35.5381C82.6943 36.3978 83.0839 37.3383 83.084 38.3711C83.0783 40.0043 83.0329 41.6324 82.9297 43.2598C82.8208 44.9332 82.6203 46.5951 82.4541 48.332C82.901 47.9629 83.3249 47.6223 83.7432 47.2646C84.5456 46.5721 85.2331 45.816 85.5771 44.7656L85.5889 44.7598C85.9152 43.7498 86.0243 42.7569 85.709 41.7412C85.4856 41.02 85.2334 40.3044 84.9932 39.5889C84.6264 38.4867 84.1563 37.4365 83.5889 36.4209C83.3196 35.9362 83.0842 35.4285 82.8779 34.915C82.6659 34.3842 82.5054 33.8354 82.0986 33.4199C82.0413 33.3679 81.9375 33.304 81.8916 33.3213ZM56.4482 28.2314C56.345 28.266 56.276 28.272 56.2188 28.3066C55.7316 28.5952 55.2442 28.8892 54.7627 29.1836C54.2011 29.524 53.651 29.8596 53.0205 30.0674C52.0863 30.3732 51.1631 30.6957 50.2461 31.042C49.4151 31.3594 48.659 31.8272 48.04 32.4619C47.3809 33.1371 46.7099 33.8242 46.3086 34.7129C46.1424 35.0879 45.9071 35.4339 45.7695 35.8203C45.5861 36.3282 45.4372 36.8597 45.334 37.3906C45.2652 37.7541 45.2081 38.1579 45.2939 38.5098C45.4889 39.3003 45.8613 40.0393 46.3428 40.6914C46.8472 41.3724 47.4093 42.0132 47.9883 42.625C48.6531 43.3347 49.352 44.0102 50.0684 44.668C50.5326 45.1008 51.0547 45.4702 51.5361 45.8799C51.708 46.024 51.8633 46.047 51.9951 45.8682C52.1899 45.6028 52.3959 45.343 52.5449 45.0488L52.5508 45.0371C52.889 44.3677 53.0547 43.6458 53.1465 42.9014C53.2497 42.0878 53.4678 41.2853 53.5537 40.4717C53.7027 39.0638 53.6799 37.6501 53.4277 36.2422C53.1927 34.9379 52.9175 33.6563 52.1953 32.5137C52.1495 32.4386 52.1722 32.2599 52.2295 32.2021C52.2867 32.1444 52.4417 32.145 52.5391 32.1738C52.625 32.2027 52.7112 32.2943 52.7627 32.375C52.9748 32.7096 53.1982 33.0388 53.3701 33.3906C53.8688 34.4351 54.0009 35.5838 54.1729 36.7148C54.2702 37.3554 54.2992 38.0138 54.3623 38.7178C54.5171 38.0368 54.9237 37.5746 55.3994 37.1592C55.2562 37.0495 55.1295 36.9632 55.0264 36.8594C54.4362 36.2766 54.2932 35.5262 54.3906 34.7588C54.511 33.847 54.7177 32.9404 54.9355 32.0459C55.1935 30.9727 55.56 29.928 56.0586 28.9355C56.1675 28.7105 56.2992 28.491 56.4482 28.2314ZM74.9453 42.5781C74.8765 42.5955 74.7843 42.7168 74.7842 42.7861L74.793 43C74.8056 43.2188 74.8299 43.4351 74.8643 43.6514C74.8757 43.7265 74.9793 43.8196 75.0596 43.8369C75.1111 43.8484 75.2261 43.7499 75.249 43.6807C75.2834 43.5595 75.2717 43.4152 75.2832 43.2363C75.2545 43.0862 75.231 42.8898 75.168 42.7051C75.1446 42.6419 75.0084 42.5671 74.9453 42.5781ZM73.2256 40.6973C73.1854 40.7087 73.1332 40.8418 73.1504 40.9053C73.2364 41.2226 73.3404 41.5401 73.4551 41.8516C73.4784 41.9091 73.5985 41.9609 73.6729 41.9609C73.73 41.9605 73.7762 41.8571 73.8447 41.7822H73.8389C73.7071 41.4246 73.5925 41.0897 73.4551 40.7666C73.4322 40.7147 73.3002 40.68 73.2256 40.6973ZM35.1602 34.3203C35.5958 34.3203 36.3241 34.4819 36.3643 35.4688L35.2637 36.0166C35.2633 35.9997 35.2474 35.4278 34.9258 35.3877C34.8914 35.6417 34.874 35.873 34.874 36.1211C34.8741 36.4729 34.9832 36.5827 35.1895 36.6865C35.3614 36.7731 35.6537 36.9174 35.7969 37.0039L35.791 37.0098C36.2438 37.2752 36.4219 37.6906 36.4219 38.2734C36.4219 38.9597 36.185 39.5835 36.1807 39.5947L35.2178 40.4609C35.1491 40.4782 35.0461 40.4834 34.9717 40.4834C34.4558 40.4834 33.8364 40.3623 33.8135 39.2197L34.9199 38.7754C34.9199 38.7754 34.9312 39.3815 35.2578 39.4219C35.3266 39.22 35.3613 38.9889 35.3613 38.7754C35.3613 38.2272 35.1316 38.0544 34.6387 37.8408C34.2948 37.6908 33.9567 37.4536 33.8535 36.9111C33.8306 36.7555 33.8135 36.5938 33.8135 36.4209C33.8135 36.0111 33.8999 35.544 34.0947 35.0996L35.1602 34.3203ZM96.2607 34.3203C96.6967 34.3203 97.4244 34.482 97.4648 35.4688L96.3643 36.0166C96.3638 35.9996 96.3477 35.4275 96.0254 35.3877C95.9917 35.6417 95.9736 35.873 95.9736 36.1211C95.9737 36.4728 96.0826 36.5827 96.2891 36.6865C96.4611 36.7731 96.7541 36.9173 96.8975 37.0039L96.8916 37.0098C97.3442 37.2752 97.5225 37.6907 97.5225 38.2734C97.5225 38.9573 97.2871 39.5792 97.2812 39.5947L96.3184 40.4609C96.2502 40.4782 96.1464 40.4834 96.0723 40.4834C95.5562 40.4834 94.9368 40.3623 94.9141 39.2197L96.0205 38.7754C96.0205 38.7754 96.0313 39.3815 96.3584 39.4219C96.4267 39.22 96.4609 38.9889 96.4609 38.7754C96.4609 38.2272 96.2317 38.0544 95.7393 37.8408C95.3953 37.6908 95.0578 37.4536 94.9541 36.9111C94.9314 36.7555 94.9141 36.5939 94.9141 36.4209C94.9141 36.0111 95.0006 35.544 95.1953 35.0996L96.2607 34.3203ZM41.5342 34.3203C41.8837 34.3203 42.2274 34.3493 42.5254 34.6953C42.7661 34.9723 42.7725 35.3133 42.7725 35.4346V35.4863L41.6143 36.0693C41.62 35.9829 41.6201 35.9594 41.6201 35.9248C41.6201 35.3478 41.2359 35.2783 41.041 35.2783C40.9761 35.2783 40.9368 35.2836 40.9326 35.2842C40.9308 35.2941 40.7549 36.2708 40.7549 37.3789C40.7549 37.5982 40.7543 37.8118 40.7715 38.0254C40.8631 39.3751 41.5793 39.376 41.9463 39.376C42.3131 39.376 42.5318 39.2144 42.6865 39.0586V39.0645C42.6922 39.053 42.7991 39.1208 42.7949 39.1387C42.7605 39.2195 42.4628 39.7743 42.2393 40.0859C42.0043 40.4204 41.7175 40.4775 41.2764 40.4775C40.7549 40.4775 40.3017 40.2358 40.0381 39.8262C39.6655 39.2434 39.5967 38.5853 39.5967 37.7256C39.5967 36.7791 39.8205 35.5664 39.8721 35.4395C39.9076 35.3522 40.2797 35.0177 40.6631 34.7412C41.0469 34.4644 41.3622 34.3203 41.5342 34.3203ZM30.8203 38.7061C30.8203 39.11 31.05 39.3408 31.3652 39.3408C31.4512 39.3408 31.5489 39.3295 31.6406 39.2891C31.6406 36.8916 31.6184 34.4943 31.6172 34.3662H32.8037C32.8037 34.3662 32.7813 35.8091 32.7812 37.1133C32.7812 38.7581 32.8034 40.3521 32.8037 40.374H31.6172C31.6176 40.3657 31.6289 40.122 31.6289 39.8838C31.6264 39.8864 31.3185 40.2077 31.1758 40.3457C31.152 40.3691 31.0084 40.4375 30.7344 40.4375C29.8405 40.4374 29.6514 39.8027 29.6514 38.9717C29.6514 38.7234 29.6689 38.0016 29.6689 37.1074C29.6689 35.8853 29.6517 34.3922 29.6514 34.3613H30.8379C30.8376 34.4009 30.8203 36.8344 30.8203 38.7061ZM28.4248 34.3154C28.4255 34.3463 28.4599 35.8476 28.5166 37.2754C28.5848 38.7968 28.6867 40.2957 28.6885 40.3223L27.4854 40.4092C27.4854 40.4092 27.4503 39.0584 27.4102 37.9619C27.37 36.9753 27.3184 36.2363 27.3184 36.2363C27.3184 36.2363 27.1013 37.0509 26.958 37.6973C26.7486 38.626 26.4889 39.774 26.4824 39.8027L26.5391 40.3281L25.3184 40.3691C25.3184 40.3691 25.0779 39.2026 24.8486 38.1523C24.6595 37.3099 24.4814 36.5479 24.4814 36.5479C24.4814 36.5479 24.436 37.3042 24.4131 38.1523C24.379 39.1635 24.3617 40.2995 24.3613 40.3223L23.3867 40.4092C23.3867 40.4092 23.5247 38.8452 23.6279 37.2754C23.7192 35.8282 23.7874 34.3696 23.7881 34.3555L25.1006 34.3154C25.1068 34.3446 25.3947 35.6987 25.6045 36.6406C25.8365 37.6662 26.0074 38.3319 26.0117 38.3486C26.0156 38.3338 26.1926 37.6677 26.4307 36.6406C26.6473 35.6935 26.9373 34.3697 26.9404 34.3555L28.4131 34.3154H28.4248ZM107.662 34.3154C107.657 34.3414 107.401 35.6044 107.157 36.958C106.867 38.555 106.572 40.294 106.567 40.3223L105.237 40.4092C105.236 40.3998 104.99 38.5869 104.744 36.958C104.545 35.592 104.34 34.3687 104.338 34.3555L105.541 34.3154L105.84 36.5137C105.976 37.4755 106.101 38.4032 106.103 38.418C106.105 38.4054 106.253 37.4766 106.396 36.5137L106.39 36.5078C106.544 35.4562 106.698 34.3647 106.699 34.3555L107.662 34.3154ZM110.321 34.3086C110.321 34.3086 110.66 36.4038 110.987 38.1582C111.187 39.243 111.411 40.3223 111.411 40.3223L110.19 40.4082C110.187 40.387 110.033 39.3458 109.914 38.666H108.976C108.866 39.3528 108.763 40.3223 108.763 40.3223L107.806 40.4082C107.81 40.3865 108.032 39.3572 108.241 38.1582C108.54 36.4501 108.871 34.3545 108.871 34.3545L110.31 34.3145L110.321 34.3086ZM93.5615 35.2783C93.5615 35.2783 93.1763 35.2607 92.7354 35.2607V36.8486C93.3661 36.8486 93.9912 36.8311 93.9912 36.8311L93.5205 37.7256C93.5116 37.7252 93.1542 37.708 92.7354 37.708V39.4736C93.4435 39.4736 94.1512 39.4574 94.168 39.457L93.6924 40.374H91.583C91.5833 40.3531 91.6064 38.8798 91.6064 37.3672C91.6064 35.8597 91.5835 34.392 91.583 34.3613H94.1172L93.5615 35.2783ZM38.5752 34.3613C38.5747 34.3909 38.5527 35.7503 38.5527 37.1943C38.5527 38.8094 38.5749 40.345 38.5752 40.3682H37.4004C37.4007 40.3452 37.4229 38.8152 37.4229 37.1943C37.4229 35.7502 37.4009 34.3908 37.4004 34.3613H38.5752ZM90.2256 35.2783H90.2197C90.2052 35.2777 89.8384 35.2607 89.4111 35.2607V36.8486C90.0073 36.8486 90.6328 36.8311 90.6328 36.8311L90.208 37.7256C90.1947 37.725 89.795 37.708 89.417 37.708C89.417 39.1044 89.4401 40.3476 89.4404 40.3682H88.2656C88.266 40.345 88.2881 38.7866 88.2881 37.1943C88.2881 35.824 88.2661 34.3916 88.2656 34.3613H90.7705L90.2256 35.2783ZM101.117 35.2783C101.117 35.2783 100.779 35.2607 100.44 35.2607C100.44 35.2607 100.417 36.3343 100.417 37.6211C100.417 38.898 100.44 40.3457 100.44 40.3682H99.2363C99.2367 40.3459 99.2588 38.8981 99.2588 37.6211C99.2588 36.3343 99.2363 35.2607 99.2363 35.2607C98.7214 35.2607 98.153 35.2817 98.1152 35.2832L98.5371 34.3613H101.627L101.117 35.2783ZM103.529 34.3613C103.529 34.3907 103.506 35.7501 103.506 37.1943C103.506 38.8096 103.529 40.3453 103.529 40.3682H102.354C102.355 40.3452 102.377 38.8152 102.377 37.1943C102.377 35.7502 102.355 34.3908 102.354 34.3613H103.529ZM113.358 34.3555C113.358 34.3866 113.336 35.8767 113.336 37.3613H113.33V39.4678C114.006 39.4678 114.677 39.3833 114.688 39.3818L114.023 40.3682H112.207C112.207 40.3488 112.229 39.068 112.229 37.3613C112.229 35.6611 112.208 34.384 112.207 34.3555H113.358ZM48.3271 35.4395C48.3845 35.278 48.522 35.2256 48.6709 35.2891C48.9344 35.3987 49.2323 35.4912 49.4443 35.6699C50.476 36.5298 51.2153 37.5976 51.5479 38.9248V38.9365C51.6052 39.1615 51.6229 39.3982 51.6572 39.6348H51.6455V39.7041C51.6569 39.8887 51.6454 40.0794 51.416 40.1025C51.1926 40.1255 51.1351 39.9348 51.1064 39.7559C50.8714 38.2556 50.0687 37.0841 48.9912 36.0801C48.8538 35.9475 48.6651 35.8607 48.499 35.7627C48.373 35.6877 48.2698 35.5953 48.3271 35.4395ZM74.0967 38.7695C73.8734 38.7868 73.7415 38.9078 73.7812 39.0635C73.8557 39.3866 73.9816 39.7048 74.1191 40.0049C74.148 40.0683 74.3428 40.1137 74.4346 40.085C74.5033 40.0619 74.5834 39.8952 74.5664 39.8086C74.5092 39.5316 74.4234 39.2597 74.3203 39C74.2857 38.9078 74.1711 38.8444 74.0967 38.7695ZM69.4541 33.1484C69.4025 33.1657 69.3564 33.2932 69.3564 33.3682C69.3622 33.4662 69.4083 33.564 69.4541 33.6562C69.7694 34.2737 70.1016 34.8797 70.4111 35.5029H70.4053C70.9326 36.5649 71.4431 37.6385 71.959 38.7119C72.1194 39.0465 72.2629 39.3868 72.4463 39.7041C72.4921 39.7849 72.6808 39.8433 72.7783 39.8145C72.8986 39.774 72.9847 39.6353 73.082 39.543C72.9904 39.2718 72.9162 39.0582 72.8359 38.8447C72.538 38.0312 72.2225 37.229 71.7412 36.502C71.2196 35.7114 70.7144 34.9027 70.21 34.0947C70.0324 33.8063 69.8718 33.5063 69.6885 33.2236C69.6482 33.1719 69.5172 33.1256 69.4541 33.1484ZM71.1328 38.5732C71.0412 38.6022 70.9159 38.6888 70.9043 38.7695C70.8756 38.9311 71.1394 39.1963 71.3457 39.1963C71.3802 39.1502 71.4651 39.0754 71.4824 38.9893C71.5054 38.8507 71.2418 38.5386 71.1328 38.5732ZM19.208 35.9824C19.2767 35.8727 19.4597 35.8727 19.5342 35.9824H19.54C19.8152 36.3979 20.3716 36.9574 20.7842 37.2344C20.8356 37.2747 20.87 37.3324 20.8701 37.4014C20.8701 37.4706 20.8415 37.5347 20.7842 37.5693C20.3716 37.8464 19.8152 38.4058 19.54 38.8213C19.4999 38.8732 19.4428 38.9082 19.374 38.9082C19.3052 38.9082 19.2423 38.879 19.208 38.8213C18.9329 38.4058 18.3765 37.8464 17.9639 37.5693C17.9123 37.529 17.8779 37.4706 17.8779 37.4014C17.8781 37.3323 17.9067 37.269 17.9639 37.2344C18.3765 36.9574 18.9329 36.398 19.208 35.9824ZM117.711 35.8955C117.779 35.8956 117.842 35.9238 117.877 35.9814C118.152 36.3968 118.707 36.9563 119.12 37.2334C119.172 37.2738 119.206 37.3322 119.206 37.4014C119.206 37.4706 119.177 37.5338 119.12 37.5684C118.707 37.8454 118.152 38.4059 117.877 38.8213C117.837 38.8731 117.779 38.9071 117.711 38.9072C117.642 38.9072 117.579 38.8786 117.545 38.8213C117.269 38.4058 116.713 37.8454 116.3 37.5684C116.248 37.528 116.214 37.4705 116.214 37.4014C116.214 37.3322 116.242 37.268 116.3 37.2334C116.713 36.9564 117.269 36.3968 117.545 35.9814C117.585 35.9296 117.642 35.8955 117.711 35.8955ZM109.101 37.8057H109.789L109.422 35.7451L109.101 37.8057ZM69.7061 1.24121C68.8061 1.10848 67.9006 1.07919 66.9893 1.14844C66.0379 1.21769 65.1035 1.34475 64.1865 1.59863C63.2007 1.87564 62.2889 2.30287 61.4463 2.88574C60.5522 3.50322 59.8525 4.28232 59.457 5.30371C58.9986 6.48663 58.7469 7.72739 58.6035 8.98535C58.5921 9.12949 58.5404 9.22177 58.3975 9.29102C57.6582 9.66024 56.9185 10.0239 56.2021 10.4277C55.3997 10.8778 54.775 11.5305 54.3623 12.3672C54.0127 13.0712 53.938 13.7985 54.2246 14.543C54.5857 15.4836 55.2105 16.2053 56.0645 16.7246C56.626 17.065 57.2278 17.2957 57.8867 17.4053C57.9211 17.2265 57.9557 17.0766 57.9844 16.9209C58.1276 16.1938 58.1794 15.4664 57.9502 14.7451C57.9043 14.6009 57.9155 14.4734 58.0645 14.3984C58.2191 14.3177 58.3164 14.4159 58.4023 14.5254C58.6774 14.883 58.6836 15.3102 58.6836 15.7256C58.6721 16.4585 58.6095 17.1919 58.6152 17.9248L58.6035 17.9307C58.6092 18.9925 58.6144 20.066 58.7119 21.1221C58.8093 22.1607 59.0279 23.1875 59.75 24.0127C60.1799 24.5032 60.5699 25.0235 61.0342 25.4678C61.5099 25.9293 62.0543 26.3103 62.5586 26.7373C62.6616 26.8238 62.7765 26.9504 62.7881 27.0713C62.834 27.6657 63.1318 28.0877 63.6133 28.3994C63.8194 28.532 64.037 28.6416 64.2432 28.7627C64.1686 28.9472 64.0371 29.109 64.0371 29.2764C64.0371 29.7899 64.0712 30.3097 64.1113 30.8291C64.14 31.1291 64.1977 31.4236 64.2607 31.7178C64.318 31.9716 64.3698 32.2369 64.4844 32.4619C64.8798 33.2294 65.453 33.3158 66.2383 32.8887C66.5132 32.7387 66.7769 32.5601 67.0518 32.4102C67.3842 32.2255 67.6767 32.3868 67.7227 32.7617C67.7513 32.9521 67.7806 33.1367 67.832 33.3213C68.2333 34.7929 68.9209 36.1263 69.7979 37.3613C69.9468 37.569 70.1187 37.6271 70.2734 37.5234C70.4339 37.4196 70.4453 37.1823 70.3135 36.9746C69.683 36.0051 69.0923 35.0237 68.6338 33.9619C68.4505 33.5408 68.3017 33.108 68.124 32.6523C68.6455 32.7158 69.121 32.7039 69.5566 32.5078C69.8031 32.3924 69.9069 32.4328 70.0674 32.6289C70.8011 33.5119 71.4718 34.4301 71.959 35.4746C72.085 35.7458 72.1768 36.0345 72.3086 36.3057C72.3715 36.4382 72.4574 36.588 72.6689 36.502C72.8694 36.4154 72.8642 36.2651 72.8184 36.1094C72.7611 35.9248 72.6753 35.7452 72.6064 35.5605C72.2052 34.4642 71.5914 33.5001 70.8291 32.623C70.663 32.4269 70.4853 32.2421 70.3135 32.0518C70.3191 32.0345 70.3254 32.0114 70.3311 31.9941C70.4514 32.0229 70.5892 32.0292 70.6924 32.0869C70.9444 32.2312 71.1621 32.4335 71.4199 32.5488C71.9815 32.8084 72.3482 32.8134 72.7666 32.4268C73.3626 31.8727 73.4888 30.6327 72.8984 29.9863C72.8583 29.9459 72.8416 29.8187 72.876 29.7783C73.0192 29.5937 73.042 29.3858 72.9561 29.1953C72.8185 28.8953 72.6348 28.6184 72.4629 28.3184C72.5259 28.3068 72.6467 28.1624 72.7441 28.3584C72.9734 28.8258 73.2028 29.2935 73.4092 29.7725C73.8562 30.817 74.2919 31.8618 74.7275 32.9121C74.8192 33.1369 74.9849 33.2701 75.2139 33.3164C75.4145 33.3567 75.6157 33.3966 75.8164 33.4082C76.5958 33.4486 77.3757 33.4656 78.1494 33.5176C78.5391 33.5465 78.9228 33.6568 79.3125 33.6914C79.662 33.7203 80.0233 33.7432 80.3613 33.6855C80.5219 33.6567 80.7231 33.4662 80.7861 33.2988C81.0154 32.6642 80.8315 32.116 80.2871 31.7178C79.5305 31.1696 78.7742 30.6147 78.0176 30.0723C77.3641 29.6048 76.7049 29.1374 76.04 28.6758C75.5185 28.3123 74.9911 27.9487 74.4639 27.5967C74.332 27.5101 74.303 27.4349 74.3545 27.2676C74.4289 27.0195 74.4574 26.7595 74.4746 26.5C74.4917 26.1942 74.4066 25.8657 74.7217 25.6465C74.7675 25.6118 74.7841 25.5362 74.8184 25.4844C75.3571 24.6592 75.8215 23.7937 76.2227 22.8877C76.8187 21.5663 77.1175 20.2102 76.7451 18.7676C76.6419 18.3579 76.613 17.9418 76.7334 17.5264C76.762 17.4283 76.7557 17.3187 76.75 17.2207C76.7271 16.9496 76.693 16.6843 76.6758 16.4189C76.6299 15.7726 76.5899 15.1258 76.5498 14.4795C76.5383 14.2486 76.6017 14.0407 76.8311 13.9541C76.917 13.9139 77.0603 13.908 77.1289 13.96C77.1919 14.0062 77.2031 14.1509 77.2031 14.249C77.1973 14.4566 77.1458 14.6703 77.1572 14.8779C77.1744 15.2298 77.2263 15.5875 77.2607 15.9395C77.2894 16.228 77.3064 16.5166 77.335 16.834C77.4439 16.7878 77.5303 16.7592 77.6162 16.7188C78.5963 16.2571 79.4387 15.6045 80.1494 14.7852C80.7512 14.0869 81.0954 13.2789 81.1699 12.3613C81.2329 11.6285 80.9288 11.0224 80.499 10.4453C79.9316 9.68366 79.1804 9.15248 78.3379 8.7832C77.696 8.50047 76.9967 8.34523 76.3262 8.12598C76.2688 8.10294 76.1999 8.01565 76.1885 7.95215C76.1312 7.65233 76.1315 7.33519 76.04 7.04688C75.8451 6.45247 75.6157 5.86323 75.375 5.28613C75.1171 4.66288 74.7677 4.08544 74.292 3.60645C73.8334 3.1506 73.3343 2.74146 72.7842 2.37793C71.8384 1.75468 70.8066 1.4028 69.7061 1.24121ZM51.4668 35.3076H51.4609C51.5525 35.3364 51.6442 35.4054 51.7129 35.4746C52.1715 35.942 52.3613 36.5311 52.4473 37.2178C52.4129 37.2582 52.3548 37.3616 52.2803 37.3848C52.2116 37.4019 52.0919 37.3505 52.0459 37.293C51.9657 37.1891 51.9312 37.0557 51.8682 36.9346C51.6676 36.5422 51.4662 36.1503 51.2656 35.7637C51.2313 35.7003 51.169 35.6425 51.1631 35.5791C51.1574 35.5041 51.1632 35.3881 51.2148 35.3477C51.2722 35.3017 51.3925 35.2845 51.4668 35.3076ZM59.9102 25.4385C59.6465 25.2193 59.2851 25.3116 59.1074 25.5654C58.6891 26.1656 58.271 26.7601 57.8525 27.3545C57.8296 27.3891 57.8013 27.4126 57.7783 27.4473C57.4288 27.9608 57.0555 28.4624 56.7461 28.999H56.7578C56.5342 29.3857 56.4025 29.8248 56.2363 30.2402C55.6918 31.6136 55.302 33.0274 55.0957 34.4873C54.9696 35.353 54.9986 36.1785 55.8984 36.6748C55.944 36.6979 55.9783 36.7435 56.0068 36.7666C56.3506 36.6281 56.6546 36.473 56.9756 36.375C57.583 36.1845 58.1964 36.017 58.8096 35.8555C59.956 35.5554 61.1026 35.2554 62.249 34.9668C62.6559 34.8629 63.028 34.3373 62.9248 33.916C62.7644 33.2697 62.5808 32.6347 62.3975 32C62.2599 31.5269 62.0879 31.0708 61.9619 30.5977C61.7785 29.9052 61.6066 29.207 61.4404 28.5088C61.3201 27.9895 61.223 27.4645 61.1084 26.9395C61.074 26.7836 61.0848 26.5874 60.9932 26.4893C60.6492 26.1199 60.2941 25.7617 59.9102 25.4385ZM98.1133 35.29V35.2842C98.1133 35.2842 98.114 35.2833 98.1152 35.2832L98.1133 35.29ZM50.4863 34.124C50.6297 34.124 50.8072 34.3491 50.8359 34.5742C50.7444 34.6318 50.6529 34.7227 50.5557 34.7344C50.3853 34.7521 50.2064 34.5316 50.2178 34.3545C50.2294 34.1876 50.3377 34.1241 50.4863 34.124ZM31.6172 34.3662H31.6113L31.6172 34.3613C31.6172 34.3621 31.6172 34.3637 31.6172 34.3662ZM65.252 29.2188C65.699 29.3283 66.14 29.4502 66.5869 29.5713C66.6844 29.6001 66.7763 29.6284 66.8623 29.6572V29.6924C66.5757 29.6693 66.2886 29.6289 66.002 29.6289C65.7329 29.6291 65.5842 29.8311 65.6816 30.0791C65.7218 30.1886 65.8819 30.2866 66.0078 30.3213C66.3346 30.402 66.6677 30.4479 67.0059 30.5518C66.7709 30.5921 66.5357 30.6217 66.3008 30.6621C66.1919 30.6794 66.0599 30.668 65.9854 30.7314C65.8881 30.8064 65.7844 30.9442 65.7842 31.0537C65.7842 31.1402 65.9336 31.3075 66.0195 31.3076C66.3232 31.3192 66.627 31.2904 66.9307 31.25V31.2617C67.1141 31.2329 67.166 31.32 67.2061 31.4873C67.0055 31.5508 66.8044 31.5969 66.6211 31.6719C66.3634 31.7757 66.1056 31.8966 65.8594 32.0293C65.7046 32.1158 65.5898 32.1045 65.458 31.9893C65.1142 31.6949 65.022 31.308 64.999 30.8867C64.9934 30.8175 65.0566 30.7422 65.0967 30.6787C65.2513 30.4422 65.2339 30.2578 65.0391 30.0674C64.8788 29.9114 64.8729 29.4146 65.0391 29.2646C65.0849 29.2185 65.189 29.2015 65.252 29.2188ZM62.1396 27.3428C62.0308 27.3429 61.8759 27.4067 61.8301 27.4932C61.7672 27.6142 61.7443 27.793 61.7842 27.9199C62.1281 28.9298 62.4781 29.9342 62.8506 30.9326C62.9538 31.2096 63.1197 31.4696 63.2803 31.7178C63.3547 31.839 63.4359 32.0637 63.625 31.9541C63.7222 31.8961 63.7397 31.6941 63.7969 31.5615C63.7683 31.1404 63.6248 30.7884 63.4473 30.4365C63.2238 29.9808 63.0058 29.513 62.8281 29.0342C62.6447 28.5495 62.5237 28.0354 62.3574 27.5449C62.3286 27.4584 62.2141 27.3428 62.1396 27.3428ZM129.913 17.2158C130.526 17.2274 131.322 17.279 131.89 17.7402C132.578 18.2885 132.836 18.9529 132.818 20.084L130.079 21.3008C130.102 19.9623 129.477 19.4432 128.841 19.4316C128.714 19.4316 128.594 19.4489 128.491 19.4893C128.233 20.0202 127.883 21.8435 127.838 24.8096C127.797 27.7354 128.468 29.2707 129.798 29.2881C129.964 29.2881 130.124 29.2709 130.251 29.2305C130.251 29.2184 130.285 28.359 130.296 27.4824C130.308 26.5812 130.302 25.6794 130.302 25.6699C129.379 25.6526 128.439 25.6816 128.439 25.6816L130.044 23.6035V23.5977L133.191 23.6445C133.191 23.6663 133.151 25.1735 133.128 26.709C133.099 28.3132 133.099 29.9404 133.099 29.9404C131.982 30.7309 131.139 31.274 130.251 31.7529C130.251 31.7529 129.798 31.9715 128.961 31.96C127.694 31.9427 125.046 31.0597 125.121 26.1602C125.156 23.8346 125.437 21.4514 125.992 19.6279C126.801 18.8373 127.998 17.8447 129.236 17.2676C129.402 17.2272 129.707 17.2158 129.913 17.2158ZM69.46 29.3516C69.6088 29.3286 69.6886 29.3867 69.7344 29.5078C69.9465 30.108 70.0843 30.7137 69.792 31.3369C69.6143 31.712 69.3159 31.9029 68.8115 31.874C68.9949 31.7124 69.1388 31.5849 69.2764 31.4521C69.3279 31.4002 69.3792 31.3191 69.3906 31.25C69.4019 31.1923 69.3738 31.1002 69.3281 31.0713C69.2765 31.0424 69.1784 31.0366 69.1211 31.0654C68.9435 31.1462 68.7774 31.2388 68.6113 31.3311C68.5999 31.3138 68.5827 31.2965 68.5713 31.2793C68.6917 31.0657 68.8179 30.8522 68.9326 30.6387C68.9841 30.5407 69.0529 30.4426 69.0645 30.3389C69.0759 30.2639 69.0129 30.1824 68.9785 30.1016C68.9041 30.1362 68.8059 30.1542 68.7715 30.2119C68.6456 30.4022 68.5538 30.6097 68.4336 30.8057C68.3648 30.9095 68.285 31.0139 68.1934 31.0947C68.1246 31.1467 67.9922 31.2095 67.9521 31.1807C67.8778 31.1287 67.82 31.0139 67.8027 30.916C67.7798 30.7891 67.8199 30.6503 67.8027 30.5176C67.7626 30.229 67.7059 29.94 67.6543 29.6572C67.6371 29.5592 67.6197 29.4613 67.6025 29.3691H68.9834C69.1439 29.3691 69.2993 29.3804 69.4541 29.3516H69.46ZM71.6875 28.665C72.0141 28.942 72.2899 29.2876 72.29 29.6973C72.2958 30.1474 72.5536 30.5233 72.5479 30.9561C72.5421 31.1982 72.5019 31.4404 72.4561 31.6768C72.4331 31.8094 72.3241 31.9021 72.1924 31.833C71.7453 31.6079 71.3095 31.3656 70.8682 31.1289C70.8739 31.1059 70.8849 31.0826 70.8906 31.0596C71.0682 31.0192 71.2521 30.9904 71.4297 30.9385C71.51 30.9154 71.6018 30.869 71.6592 30.7998C71.6993 30.7478 71.7219 30.6205 71.6875 30.5859C71.6358 30.5285 71.5331 30.4884 71.4531 30.4883C71.2812 30.4998 71.1149 30.5405 70.9316 30.5693C70.8514 30.1769 70.8566 30.1821 71.1719 30.084C71.2979 30.0437 71.4359 30.0096 71.5391 29.9346C71.6135 29.8826 71.6766 29.7613 71.6768 29.6748C71.6768 29.6171 71.5442 29.5244 71.4697 29.5186C71.3323 29.5072 71.1893 29.5301 71.0576 29.5762C70.8513 29.6454 70.7306 29.5933 70.6904 29.3682C70.6732 29.2933 70.6388 29.2239 70.6045 29.126C70.9711 28.9645 71.3265 28.815 71.6816 28.665H71.6875ZM118.646 17.1514C118.646 17.1514 119.35 19.4887 120.09 21.8662C120.852 24.3304 121.672 26.8125 121.672 26.8125L121.678 26.8066C121.752 21.6291 121.695 17.2393 121.694 17.1924L123.741 17.2207C123.741 17.2207 123.621 20.9487 123.575 24.2207C123.518 28.07 123.528 31.5273 123.528 31.5273L120.377 31.6885C120.371 31.6681 119.491 28.8285 118.656 26.126C117.897 23.6778 117.161 21.3262 117.155 21.3066C117.081 26.3101 117.126 31.5391 117.126 31.5391L115.04 31.5098C115.041 31.487 115.252 23.9693 115.35 17.5156L115.212 17.0996L118.646 17.1514ZM22.8701 16.8691C23.9133 16.8691 25.6498 17.2618 25.7529 19.6279L23.1172 20.9434C23.1168 20.93 23.0727 19.5467 22.2969 19.4434C22.2166 20.0375 22.1768 20.5972 22.1768 21.1914C22.1768 22.034 22.4406 22.2997 22.9336 22.5479C23.3406 22.7557 24.0342 23.1019 24.3838 23.3096C25.4669 23.9444 25.8965 24.9318 25.8965 26.334H25.8857C25.8856 27.9961 25.3163 29.4921 25.3125 29.502L23.002 31.5791C22.8416 31.6195 22.5954 31.6426 22.4121 31.6426C21.1683 31.6426 19.6949 31.3544 19.6318 28.6191L22.291 27.5508C22.291 27.5508 22.3318 28.9938 23.1113 29.0977C23.2775 28.6187 23.3574 28.0644 23.3574 27.5508C23.3573 26.2355 22.8072 25.8201 21.6211 25.3066C20.8072 24.9604 19.9867 24.3825 19.7402 23.084C19.6772 22.7149 19.6377 22.3226 19.6377 21.9131C19.6377 20.9264 19.8436 19.8184 20.3135 18.7451L22.8701 16.8691ZM14.3418 16.8633C15.2816 16.8633 16.2444 17.2321 16.9609 18.0166L16.9443 18.0225C17.7009 18.8651 18.3769 20.1811 18.377 22.8184C18.377 26.6445 17.6436 29.0342 17.6436 29.0342C17.076 29.7786 15.3159 31.2385 14.6396 31.5674C14.4563 31.6078 14.2098 31.6309 13.9463 31.6309C10.6965 31.6308 9.69338 28.705 9.69336 25.5137C9.69336 22.5435 10.3641 19.3674 10.3701 19.3389C10.3804 19.3298 11.2344 18.5733 12.0889 17.9365C12.9187 17.3056 13.6045 16.9377 13.625 16.9268C13.8313 16.8863 14.0781 16.8633 14.3418 16.8633ZM39.2354 16.8682C40.1752 16.8683 41.1381 17.2378 41.8545 18.0225C42.6111 18.8651 43.2871 20.1811 43.2871 22.8184C43.2871 26.6445 42.5537 29.0342 42.5537 29.0342C41.9861 29.7787 40.2261 31.2385 39.5498 31.5674C39.3664 31.6077 39.1199 31.6309 38.8564 31.6309C35.6066 31.6308 34.6035 28.705 34.6035 25.5137C34.6035 22.5441 35.274 19.3687 35.2803 19.3389C35.2875 19.3325 36.143 18.5744 36.999 17.9365C37.828 17.3063 38.5133 16.9385 38.5352 16.9268C38.7415 16.8863 38.9883 16.8633 39.252 16.8633L39.2354 16.8682ZM113.514 17.0762C113.513 17.0981 113.404 20.3828 113.353 23.8682C113.295 27.7809 113.301 31.4863 113.301 31.4863L110.481 31.4463C110.481 31.4463 110.596 27.7408 110.653 23.8281C110.704 20.3555 110.694 17.0821 110.693 17.0361L113.514 17.0762ZM106.578 16.9727C106.578 16.9727 106.464 20.5739 106.412 24.1748L106.338 29.2188C107.916 29.241 109.473 29.0758 109.587 29.0635L107.96 31.4062L103.604 31.3428C103.604 31.3284 103.707 28.2457 103.771 24.1406C103.833 20.0222 103.816 16.9356 103.816 16.9326L106.578 16.9727ZM4.18457 16.8633C6.61482 16.8633 8.15131 18.0804 8.15137 20.0771C8.15137 22.213 6.74785 23.0164 6.27441 23.2666C7.15792 23.6219 8.59852 24.6319 8.59863 26.7021C8.59863 28.1622 7.9217 29.0456 7.73828 29.2129C6.79824 30.0613 5.07873 31.377 4.71191 31.377H0.808594C0.808594 31.377 0.872066 27.8395 0.87207 23.4941C0.87207 19.1612 0.80896 16.9795 0.808594 16.9668C0.808594 16.9668 2.64845 16.8633 4.18457 16.8633ZM33.5889 19.166C33.5889 19.166 32.7923 19.126 31.9727 19.126C31.9717 19.1646 31.9092 21.723 31.9092 24.7871C31.9092 27.8551 31.9719 31.3333 31.9727 31.377H29.0889C29.0896 31.3335 29.1523 27.8552 29.1523 24.7871C29.1523 21.7228 29.0898 19.1642 29.0889 19.126C27.7994 19.126 26.3896 19.1895 26.3896 19.1895L27.4102 16.9668L27.416 16.9619H34.8154L33.5889 19.166ZM99.7119 16.8682C99.7119 16.8682 99.5973 20.4693 99.5459 24.0703L99.4707 29.1143C101.053 29.1365 102.614 28.9706 102.721 28.959L101.094 31.3018L96.7373 31.2383C96.7378 31.2239 96.8402 28.1412 96.9033 24.0361C96.9665 19.9173 96.9492 16.8307 96.9492 16.8281L99.7119 16.8682ZM93.3096 16.6729C93.311 16.6822 94.0553 21.7091 94.7705 25.918C95.2203 28.5036 95.7104 31.0892 95.7168 31.123L92.7871 31.2852C92.7871 31.2852 92.4612 28.7462 92.1973 27.0957L89.9502 27.0605H89.9453C89.6586 28.7052 89.3779 31.0254 89.3779 31.0254L87.085 31.1982C87.09 31.176 87.6548 28.7033 88.208 25.8193C88.982 21.7336 89.8535 16.7246 89.8535 16.7246L93.3096 16.6729ZM84.0762 16.5332C84.9126 16.5448 85.7268 16.6372 86.4316 17.4736C86.9989 18.1371 87 18.9622 87 19.251V19.3721L84.1963 20.7285C84.2192 20.5212 84.2197 20.4576 84.2197 20.377C84.2369 18.9979 83.3197 18.8184 82.8496 18.8125C82.6929 18.8125 82.5907 18.8293 82.5859 18.8301C82.5833 18.8435 82.1211 21.1748 82.0811 23.8447C82.0753 24.3584 82.0642 24.8779 82.0986 25.3916C82.2763 28.6234 84.0359 28.6525 84.873 28.6641C85.7499 28.6813 86.2884 28.2942 86.6611 27.9307C86.6838 27.9134 86.9462 28.0802 86.9248 28.1211C86.8388 28.3058 86.1052 29.6332 85.5605 30.3662C84.9762 31.1626 84.2995 31.2956 83.2334 31.2783C81.9896 31.261 80.912 30.6664 80.293 29.668C79.416 28.254 79.278 26.6667 79.3066 24.6064C79.3411 22.3443 79.9149 19.4474 80.041 19.1416C80.1274 18.9394 81.0385 18.1491 81.9668 17.5029C82.8953 16.8624 83.6574 16.5216 84.0645 16.5273L84.0762 16.5332ZM3.66895 27.1582C3.66895 28.145 3.69141 29.0918 3.69141 29.0918C3.69141 29.0918 4.0187 29.1953 4.55176 29.1953C4.90117 29.1953 5.12475 29.138 5.37109 29.0342H5.36523C5.50853 28.7052 5.6123 28.1448 5.6123 27.5908C5.61224 26.5002 5.24494 25.1847 3.66895 25.1846V27.1582ZM12.9092 19.5C12.9092 19.5 12.502 21.2487 12.502 24.7285C12.502 27.608 13.4247 28.9071 14.7314 28.9072C14.9352 28.9072 15.0553 28.8841 15.1963 28.8447C15.2163 28.7406 15.5859 26.7912 15.5859 24.3828C15.5859 21.9071 15.2819 19.5002 12.9092 19.5ZM37.8193 19.5C37.8193 19.5 37.4121 21.2487 37.4121 24.7285C37.4121 27.608 38.3348 28.9071 39.6416 28.9072C39.8454 28.9072 39.9655 28.8841 40.1064 28.8447C40.1265 28.7406 40.4961 26.7912 40.4961 24.3828C40.4961 21.9071 40.1921 19.5002 37.8193 19.5ZM69.3154 25.375C70.0491 26.0906 71.0642 26.5812 71.752 27.4873C71.3336 27.8393 70.869 28.082 70.3818 28.2725C69.654 28.5551 68.9089 28.5373 68.1582 28.4277C67.8143 28.3815 67.4642 28.3639 67.1318 28.2773C66.7363 28.1735 66.3575 28.0067 65.9678 27.8682C65.9563 27.8393 65.951 27.8042 65.9453 27.7754C66.1286 27.5736 66.2835 27.3375 66.501 27.1875C66.9137 26.9048 67.3611 26.6736 67.7852 26.4023C68.2837 26.0792 68.7766 25.7385 69.3096 25.375H69.3154ZM70.2959 12.0498C70.4218 12.0557 70.4792 12.1019 70.4678 12.2402C70.4334 12.7481 70.3933 13.2618 70.3818 13.7754C70.3704 14.2542 70.387 14.7389 70.3984 15.2178C70.4156 15.9794 70.433 16.7472 70.4502 17.5146C70.4731 18.2765 70.8689 18.7848 71.5166 19.1426C72.1413 19.4831 72.6395 19.968 72.8115 20.6836C72.9548 21.2779 73.0418 21.8894 73.1162 22.501V22.4893C73.2252 23.3953 73.299 24.3079 73.3906 25.2197C73.4422 25.7275 73.5052 26.2354 73.5625 26.7432C73.591 26.9854 73.3166 27.3715 73.0703 27.418C73.0187 27.4238 72.932 27.3889 72.9033 27.3428C72.4964 26.7543 72.0094 26.2466 71.4248 25.8369C71.1956 25.6811 70.9951 25.4964 70.7773 25.3232C70.4334 25.052 70.0946 24.7694 69.7393 24.5098C69.6247 24.4233 69.5963 24.3475 69.625 24.2148C69.6593 24.0706 69.654 23.9147 69.6826 23.7705C69.6998 23.6898 69.7398 23.5921 69.8027 23.5518C70.2555 23.2401 70.7203 22.9457 71.1846 22.6514C71.3334 22.5591 71.3962 22.4146 71.3447 22.2705C71.3047 22.1666 71.1782 22.0746 71.0693 22.0283C70.9433 21.9765 70.7889 21.9928 70.6514 21.9697C70.4565 21.9351 70.3987 21.7623 70.4102 21.6123C70.416 21.5085 70.5139 21.3876 70.6055 21.3242C70.6972 21.255 70.8632 21.2779 70.8174 21.4395C70.7258 21.7855 70.9946 21.8435 71.1895 21.9414C71.4015 22.0511 71.608 21.9759 71.7686 21.8145C72.0036 21.5836 72.1241 21.289 72.1699 20.9717C72.3017 20.0542 71.711 19.5639 70.8799 19.5293C70.433 19.5121 69.986 19.5812 69.5391 19.5869C69.2813 19.5926 69.0235 19.5813 68.7715 19.5352C68.2098 19.4313 67.6876 19.529 67.2119 19.8291C66.444 20.308 66.6329 21.3351 67.1543 21.6758C67.3548 21.8085 67.5902 21.9122 67.8252 21.9814C68.0201 22.045 68.1919 21.9758 68.2607 21.7393C68.2952 21.6239 68.3758 21.5141 68.4561 21.4219C68.4906 21.3758 68.5824 21.3527 68.6396 21.3643C68.6682 21.3709 68.7021 21.4631 68.7021 21.5205C68.7134 21.7743 68.5813 21.9591 68.3809 22.0859C68.2377 22.1781 68.0659 22.2298 67.917 22.3105C67.8312 22.3566 67.6939 22.4374 67.6934 22.4951C67.6991 22.622 67.7569 22.7728 67.8428 22.8594C68.0032 23.0265 68.192 23.1769 68.3867 23.3037C68.5759 23.4307 68.7881 23.5173 69.0059 23.627C68.9543 23.9096 68.9427 24.2152 68.8281 24.4863C68.7536 24.671 68.5586 24.8271 68.3809 24.9541C67.5957 25.5196 66.7872 26.045 66.0078 26.6221C65.664 26.8759 65.2808 27.1356 65.1719 27.6084C65.1432 27.7296 65.1315 27.8566 65.1143 27.9951C65.0571 27.9951 64.9999 28.0063 64.9541 27.9834C64.6848 27.8507 64.4093 27.7299 64.1572 27.5742C63.7561 27.3203 63.6699 27.0661 63.8018 26.6045C63.945 26.1312 64.1396 25.6634 64.2256 25.1787C64.3459 24.5094 64.4035 23.8225 64.4551 23.1416C64.5296 22.1665 64.7586 21.249 65.3945 20.4873C65.6811 20.1469 66.0365 19.8633 66.3574 19.5518C67.2287 18.7092 67.6015 17.6709 67.6875 16.4648C67.785 15.1318 67.5099 13.8332 67.4697 12.5176C67.464 12.3502 67.4011 12.1826 67.3438 11.9287C68.3526 11.9691 69.3272 12.0095 70.2959 12.0498ZM65.3379 25.6465C65.1717 25.6465 65.0572 25.7505 65.0801 25.9121C65.0974 26.0154 65.2106 26.1015 65.2568 26.1592C65.4938 26.1413 65.5898 26.072 65.5898 25.8887C65.5898 25.7099 65.4868 25.6466 65.3379 25.6465ZM72.6797 25.0635C72.5252 25.0522 72.399 25.1676 72.4219 25.3232C72.4391 25.4155 72.5597 25.5362 72.6514 25.5537V25.5479C72.8176 25.5825 72.8977 25.456 72.9092 25.208C72.8576 25.1733 72.7714 25.075 72.6797 25.0635ZM66.6504 24.8096C66.467 24.7865 66.364 24.9081 66.3525 25.0928C66.3412 25.2598 66.4381 25.3409 66.5869 25.3525V25.3467C66.7876 25.364 66.8512 25.2189 66.8799 24.9707C66.8283 24.9304 66.7478 24.8212 66.6504 24.8096ZM90.2881 25.0059L91.9453 25.0293L91.1377 20.0781L90.2881 25.0059ZM71.7402 24.4629C71.5741 24.4744 71.4876 24.5672 71.499 24.7461C71.5048 24.9249 71.6253 24.9707 71.7686 24.9707L71.7744 24.9658C71.9349 24.9716 72.0156 24.8904 72.0156 24.6885C71.987 24.5673 71.9178 24.4515 71.7402 24.4629ZM65.7334 24.0537C65.5557 24.048 65.4292 24.1347 65.4062 24.3193C65.3894 24.4627 65.5481 24.628 65.6963 24.6299C65.8718 24.623 65.9626 24.5257 65.9854 24.3594C65.9853 24.1863 65.9166 24.0596 65.7334 24.0537ZM67.4639 23.8281C67.3208 23.8455 67.1952 23.9036 67.1836 24.0938C67.1721 24.2668 67.315 24.3886 67.5098 24.3887C67.7046 24.3887 67.7678 24.2553 67.7793 24.0938C67.7906 23.8977 67.6472 23.8455 67.4639 23.834V23.8281ZM71.0293 23.5225C70.8689 23.5283 70.7774 23.615 70.7773 23.7764C70.7773 23.909 70.966 24.0821 71.1035 24.0479C71.1953 24.0247 71.2705 23.9213 71.3164 23.8809C71.3049 23.6154 71.2012 23.5225 71.0293 23.5225ZM3.94434 18.9863C3.77811 18.9863 3.69727 19.0098 3.69727 19.0098C3.69693 19.0248 3.67481 20.0444 3.6748 21.0869H3.68066V23.5576C4.96437 23.2921 5.45703 22.3449 5.45703 21.0869C5.45691 19.1546 4.31161 18.9865 3.94434 18.9863ZM72.0781 22.8877C72.0434 22.8595 71.8999 22.9864 71.8027 23.0439C71.797 23.0842 71.792 23.1188 71.792 23.1533C71.8893 23.2341 71.9752 23.3549 72.084 23.3838C72.1527 23.4011 72.2558 23.2746 72.3418 23.2168C72.2558 23.1014 72.187 22.9627 72.0781 22.8877ZM66.5586 22.8125C66.4611 22.8414 66.3463 22.9458 66.3291 23.0381C66.3181 23.096 66.4558 23.251 66.5303 23.251C66.6153 23.2506 66.7057 23.132 66.8408 23.0234C66.7055 22.9148 66.6096 22.7955 66.5586 22.8125ZM61.6699 16.6553C61.4292 17.6594 61.7963 18.4669 62.6445 18.6689C63.424 18.8536 64.4961 18.5137 64.6797 17.1982C65.0061 17.3829 65.2406 17.637 65.3896 17.96V17.9658C65.4179 18.0237 65.3156 18.179 65.2412 18.2539C64.6854 18.8078 64.0203 19.0847 63.2236 19.1367C62.1633 19.2059 61.3489 18.5479 60.8789 17.7227C60.7473 17.4918 60.8106 17.1918 61.0283 17.0303C61.2231 16.8804 61.4522 16.7764 61.6699 16.6553ZM73.5635 16.7363C73.3229 17.3076 73.3286 17.8322 73.7871 18.2822C74.0278 18.513 74.3143 18.6521 74.6582 18.6348C75.0763 18.6116 75.3396 18.3285 75.5859 18.0459C75.8553 17.7401 75.8616 17.3592 75.7471 16.9092V16.9033C75.9476 17.0187 76.102 17.0769 76.2109 17.1865C76.2739 17.2558 76.3144 17.4231 76.2744 17.498C75.9075 18.1962 75.3395 18.6633 74.583 18.8711C74.2106 18.9748 73.8667 18.808 73.5459 18.6465C73.2536 18.4965 72.9842 18.3115 72.7148 18.1211C72.5315 17.9941 72.5373 17.8037 72.6289 17.6133C72.8295 17.2151 73.1967 16.996 73.5635 16.7363ZM74.4922 16.8281C74.6011 16.7763 74.7676 16.9553 74.8135 17.1572C74.7218 17.2322 74.6414 17.3537 74.5439 17.3711C74.3835 17.3999 74.2343 17.2901 74.2686 17.1113C74.2915 17.0016 74.3948 16.8743 74.4922 16.8281ZM62.8789 16.7422C63.0336 16.7364 63.194 16.9036 63.1768 17.0479C63.1538 17.2151 63.0564 17.3242 62.873 17.3242C62.7069 17.2953 62.5978 17.2149 62.6035 17.0303C62.6093 16.863 62.7013 16.7422 62.8789 16.7422ZM66.2832 8.27051C67.3951 8.19543 68.513 8.21809 69.625 8.24121C70.8457 8.27006 72.0664 8.31014 73.2871 8.41406C74.8232 8.54095 76.3307 8.82408 77.7578 9.44727C78.652 9.83395 79.3978 10.4346 79.9365 11.2656C80.2457 11.7444 80.2913 12.2693 80.1367 12.8115C80.0736 13.0424 79.988 13.2681 79.8906 13.5566C79.7129 13.2278 79.5865 12.9619 79.4316 12.708C79.0591 12.0963 78.5318 11.6522 77.9414 11.2598C76.9899 10.6307 75.9068 10.3646 74.835 10.0703C74.1873 9.89137 73.5282 9.7355 72.8691 9.61426C72.2444 9.49885 71.6138 9.39513 70.9834 9.37207C69.7224 9.32583 68.4553 9.3033 67.1943 9.33789C66.5008 9.35519 65.8012 9.47568 65.1191 9.6084C64.1161 9.80465 63.1302 10.0591 62.1387 10.2842H62.1504C61.1703 10.5092 60.2244 10.8155 59.2959 11.2021C57.972 11.7561 56.8084 12.5348 55.8799 13.6426C55.6621 13.9023 55.5126 14.2204 55.335 14.5146C55.3007 14.5607 55.2776 14.6183 55.249 14.6816C54.7905 13.9834 54.733 13.4465 55.1055 12.6904C55.4953 11.8998 56.1493 11.3918 56.8887 10.959C57.9031 10.3589 58.9866 9.91517 60.0928 9.5459C61.1073 9.2112 62.1445 8.91069 63.1934 8.69141C64.2079 8.48359 65.2457 8.33969 66.2832 8.27051ZM62.8506 3.03613C62.9709 2.9438 63.1092 2.90358 63.2295 3.04785C63.3494 3.19195 63.2693 3.30176 63.1719 3.42285C62.2492 4.57702 61.7907 5.9103 61.7334 7.38184L61.7217 7.37598C61.7102 7.79123 61.7214 7.79086 61.3203 7.90625C60.8847 8.0332 60.4492 8.16039 59.9678 8.29883C60.2028 6.70039 60.6499 5.2462 61.6758 4.0459C62.0082 3.65934 62.4494 3.36498 62.8506 3.03613Z" fill="white"/>
</svg>
