<svg width="104" height="62" viewBox="0 0 104 62" fill="none" xmlns="http://www.w3.org/2000/svg">
<path d="M21.7949 21.9746V26.8926L18.665 30.0781V22.8135L14.4736 18.6221H7.32129L3.12988 22.8135V54.2764L7.32129 58.4111H14.4736L18.665 54.2764V44.0488L21.7949 40.8633V55.002L14.9766 61.8203H6.76172L0 55.002V21.9746L6.76172 15.2129H14.9766L21.7949 21.9746ZM49.0098 61.8203H45.6006L39.7324 18.6221H32.9707L27.1035 61.8203H23.75L30.0088 18.1748L29.5615 15.2129H42.1914L49.0098 61.8203ZM56.0596 25.9121L57.1123 19.4033C57.5034 19.6827 57.9505 19.962 58.3975 20.1855L56.582 28.3984L58.6113 38.0732L60.3545 27.8428L58.7334 20.2422C59.2364 20.5216 59.7957 20.6898 60.3545 20.8574L60.9688 24.2666L61.5273 21.0811C61.9744 21.2487 62.4218 21.249 62.9248 21.249L61.584 27.6191L63.4277 38.126L65.2158 27.6748L63.875 21.3047C64.3219 21.2488 64.8246 21.1368 65.2715 21.1367L65.8311 24.3223L66.4453 20.9131C66.9849 20.8052 67.5244 20.5927 68.0137 20.377L66.4453 27.7314L68.2588 38.2676L70.3408 28.459L68.5137 20.1309C68.9606 19.9074 69.4077 19.628 69.7988 19.3486L70.8633 25.9951L73.1523 15.2129H76.6172L66.6699 61.8203H60.1855L50.4062 15.2129H53.8154L56.0596 25.9121ZM71.085 61.8203H67.6201L77.5674 15.2129H80.8643L71.085 61.8203ZM99.6406 23.2041V32.5371L96.2324 29.7988V23.9863L95.2822 22.9805H90.4199L89.4141 23.9863V29.7988L104 41.4229V55.002L97.2383 61.8203H88.5195L81.7021 55.002V40.0811L85.1113 42.8193V54.2754L89.2461 58.4111H96.4551L100.591 54.2754V43.1553L86.0615 31.4756V23.2041L89.6377 19.5723H96.0645L99.6406 23.2041ZM44.6514 61.8193H41.1865L40.0684 52.6543H32.6357L31.4629 61.8193H28.1094L29.7861 49.1904H42.9189L44.6514 61.8193ZM49.457 15.2129L59.0693 61.0938L54.6543 56.0088L46.0479 15.2129H49.457ZM61.4229 51.4717L63.4277 61.0283L65.4111 51.6865L63.3721 42.0938L61.4229 51.4717ZM17.7158 23.2041V31.0283L14.083 34.6602V23.9863L13.0771 22.9805H8.71875L7.71289 23.9863V53.1025L8.71875 54.1084H13.0771L14.083 53.1025V48.6318L17.7158 44.999V53.8848L14.083 57.4609H7.71289L4.08008 53.8848V23.2041L7.71289 19.5723H14.083L17.7158 23.2041ZM104 21.9746V36.002L100.591 33.2637V22.8135L96.4551 18.6221H89.2461L85.1113 22.8135V31.9219L99.6406 43.6016V53.8848L96.0645 57.4609H89.6377L86.0615 53.8848V43.5459L89.4141 46.2842V53.1025L90.4199 54.1084H95.2822L96.2324 53.1025V45.334L81.7021 33.6543V21.9746L88.5195 15.2129H97.2383L104 21.9746ZM63.8193 40.1934L65.6211 50.6973L67.9053 39.9336L65.8867 30.4131L63.8193 40.1934ZM58.96 39.7314L61.2178 50.4932L62.9805 40.3047L60.9131 30.5254L58.96 39.7314ZM42.751 48.2402H29.8975L33.8096 19.5723H38.8389L42.751 48.2402ZM33.6416 44.8311H39.0625L36.3799 23.4834L33.6416 44.8311ZM68.0664 20.3545C68.0491 20.3622 68.0311 20.3693 68.0137 20.377L68.0664 20.1309V20.3545ZM63.4287 0.179688C68.9611 0.179918 73.4873 4.70687 73.4873 10.2393C73.4871 15.7715 68.9609 20.2976 63.4287 20.2979C57.8963 20.2979 53.3694 15.7716 53.3691 10.2393C53.3691 4.65084 57.8962 0.179688 63.4287 0.179688Z" fill="white"/>
</svg>
