<svg width="115" height="58" viewBox="0 0 115 58" fill="none" xmlns="http://www.w3.org/2000/svg">
<path fill-rule="evenodd" clip-rule="evenodd" d="M87.4171 11.8464H82.2644V21.9782C82.2644 25.2807 85.7849 28.1022 90.1375 28.1022C94.4901 28.1022 98.2986 25.2486 98.2986 21.9782V11.8464H93.1459V20.9843C93.1459 22.4912 91.8657 23.7096 90.2975 23.7096C88.6973 23.7096 87.4171 22.4912 87.4171 20.9522V11.8464ZM5.67775 6.26753V27.3006H0.333008V1.93908H9.96635C14.1589 1.93908 17.5834 5.33772 17.5834 9.47379C17.5834 13.0007 15.1191 15.9504 11.7906 16.7199L19.2156 27.3006H12.8467L7.502 18.9964V12.9366H8.75018C10.7345 12.9366 12.3347 11.4617 12.3347 9.63411C12.3347 7.80654 10.8305 6.26753 8.84619 6.26753H5.67775ZM54.8686 27.3006V0.720703H49.8119V13.2572C48.4677 11.9426 46.7715 11.2052 44.8192 11.2052C40.6586 11.2052 37.2661 14.8924 37.2661 19.4773C37.2661 24.0302 40.6586 27.7495 44.8192 27.7495C46.8035 27.7495 48.6597 26.98 49.8119 25.5692V27.3006H54.8686ZM46.2594 23.421C44.2111 23.421 42.5469 21.5935 42.5469 19.3491C42.5469 17.1047 44.2111 15.2771 46.2594 15.2771C48.3077 15.2771 49.9719 17.1047 49.9719 19.3491C49.9399 21.5935 48.2757 23.421 46.2594 23.421ZM76.1195 13.5137C77.4957 12.2312 78.3598 10.4998 78.3598 8.6081C78.3598 6.87672 77.6878 5.30566 76.5356 4.05521C75.3194 2.74065 73.2071 1.93908 70.3267 1.93908H61.7175V27.3006H72.8551C77.1117 27.2365 80.5682 23.9982 80.5682 20.0224C80.5361 17.1368 79.512 15.0848 76.1195 13.5137ZM71.8309 22.908H66.9983V6.49197H70.3907C71.8629 6.49197 73.1111 7.61416 73.1111 9.12111C73.1111 10.628 71.8629 11.8464 70.3907 11.8464H68.5985V16.4314H71.895C73.6872 16.4314 75.0314 17.9063 75.0314 19.7018C74.9674 21.4973 73.7832 22.8118 71.8309 22.908Z" fill="white"/>
<path fill-rule="evenodd" clip-rule="evenodd" d="M23.6965 17.5856C23.6965 15.8863 25.0727 14.5076 26.7689 14.5076C28.4652 14.5076 29.8414 15.8863 29.8414 17.5856H23.6965ZM34.8341 20.4713C34.8661 20.1186 34.8981 19.7659 34.8981 19.4132C34.9621 13.9305 31.3776 10.9487 26.7689 10.9487C22.1603 10.9487 18.4158 14.7321 18.4158 19.4132C18.4158 24.0943 22.1603 27.8777 26.7689 27.8777C30.2894 27.8777 33.0418 26.2746 34.45 23.7737L30.3534 21.882C29.8414 23.0042 28.6252 23.8058 27.185 23.8058C25.2967 23.8058 23.7285 22.363 23.7285 20.4713H34.8341ZM100.667 0.720703H105.724V27.3006H100.667V0.720703ZM109.276 0.720703H114.333V27.3006H109.276V0.720703Z" fill="white"/>
<path fill-rule="evenodd" clip-rule="evenodd" d="M45.7148 44.8706C45.7148 38.0092 51.2516 32.4624 58.1006 32.4624C64.9495 32.4624 70.4863 38.0092 70.4863 44.8706C70.4863 51.732 64.9495 57.2789 58.1006 57.2789C51.2516 57.2789 45.7148 51.7 45.7148 44.8706Z" fill="white"/>
<mask id="path-4-inside-1_13_191" fill="white">
<path fill-rule="evenodd" clip-rule="evenodd" d="M48.1473 37.4965C48.3393 37.5927 48.5314 37.6889 48.7554 37.8171C49.6835 38.4584 50.2916 39.0034 51.6998 40.1897C52.1159 40.6066 52.5959 41.2799 52.948 41.6967C53.7161 42.6586 54.2602 43.3319 54.3562 44.1334C54.5802 45.7366 54.8042 46.6343 55.4123 48.2695C55.4763 48.4298 55.7324 48.6543 55.8924 48.8467C56.2764 49.3276 56.4365 50.0971 57.1406 50.5139C57.5246 50.7383 57.5886 50.7704 57.7166 50.8666C57.9087 51.0269 57.5886 51.604 56.5965 51.4758C57.1086 51.7323 57.0445 52.3094 56.3084 52.3415C54.8682 52.4056 53.9721 51.572 53.7801 51.3475C53.6841 51.2513 53.396 51.6361 52.884 51.8285C52.3719 52.085 51.6678 51.8285 51.1237 51.9247C50.6117 52.0209 49.9396 52.3415 49.3955 52.3735C48.4354 52.4056 48.3073 51.7323 48.3073 51.1552V50.8987C48.2113 51.2513 47.8593 51.8605 47.8593 51.8605C47.7313 52.1491 47.5392 52.5018 47.1872 52.63L46.163 52.7583C45.3629 53.111 44.5628 53.3675 43.7307 53.656C43.2506 53.7522 42.7066 53.656 42.3545 53.3675C42.0665 53.143 41.9064 52.8545 41.7464 52.5659C41.5864 52.5018 41.3624 52.5659 41.1703 52.5018C41.0103 52.4697 40.9143 52.3415 40.8183 52.2453L40.1142 51.059C40.0502 50.8987 40.0502 50.6742 40.1142 50.5139C40.2422 50.2574 40.5303 50.1292 40.8183 50.1292C41.3304 50.0971 41.9064 49.9368 42.4185 50.1292C42.6426 49.8727 42.9946 49.9047 43.3146 49.8406C43.1866 49.6482 42.9946 49.552 42.8346 49.3917C41.9064 49.6162 40.8823 49.4558 39.9862 49.2955C39.1541 49.1032 38.45 49.5841 37.6179 49.4558L37.3618 50.0009C36.9778 50.4177 36.9458 51.1231 36.3697 51.4117C35.9536 51.5079 35.6336 51.7964 35.2815 51.9888C34.6414 52.3415 33.7773 52.1812 33.0732 52.0529C32.7852 52.0209 32.5932 52.0529 32.3371 52.1491C32.1131 52.3094 31.8571 52.5659 31.601 52.7583C31.185 52.9186 30.8329 53.2713 30.3848 53.3034C30.1288 53.3034 29.8728 53.143 29.6167 53.2072C29.2967 53.5599 29.1367 54.137 28.6246 54.2973C28.1125 54.4576 27.4724 54.3294 26.9604 54.2011C26.8004 54.2652 26.7043 54.3935 26.5123 54.3614C26.1603 54.2652 25.8082 54.169 25.4882 53.9767C25.3602 53.8484 25.3281 53.6881 25.2961 53.5599C25.2961 53.3354 25.4882 53.143 25.5842 52.9507C25.6162 52.7262 25.6162 52.4056 25.7122 52.1812C25.8722 51.8285 26.2243 51.604 26.5763 51.4437C26.6083 51.1872 26.7683 50.9628 26.9924 50.8345C27.4084 50.6101 27.8565 50.0971 28.4006 50.3857L28.9767 50.8666C29.4887 50.6422 29.3607 50.1292 29.6167 49.7123C29.7448 49.4238 29.9048 49.1032 30.2248 49.1032C30.4489 49.0711 30.7049 49.1352 30.9289 49.1032C31.249 49.007 31.601 48.8787 31.825 48.6222L31.793 48.4298C31.473 47.8207 31.377 47.0832 31.345 46.3458C30.7689 46.4099 30.1608 46.5061 29.5527 46.3778C28.6566 46.2496 27.7925 45.5442 27.4404 44.6465C27.0564 43.7808 27.2164 42.5624 27.8245 41.8249C28.3046 41.2478 28.8486 40.7348 29.4247 40.2859C29.2327 40.2218 29.0087 40.2539 28.8166 40.1897C27.9845 40.0615 27.1524 39.3241 26.9604 38.4904C26.8324 37.9454 26.9604 37.4324 27.2164 36.9835C27.3124 36.8873 27.4084 36.7911 27.5685 36.8552C27.9845 37.0155 28.1125 37.24 28.4966 37.4324L28.7206 37.5606C29.7768 37.9133 31.185 37.9133 31.601 39.2279C31.8571 40.2539 31.217 41.0234 30.4809 41.6005C29.9048 42.0173 29.3287 42.5303 29.0407 43.1395C28.9126 43.5884 28.9767 44.0373 29.3607 44.3579C29.7448 44.7426 30.4169 44.7426 30.8969 44.5503C31.793 44.1655 32.6252 43.5884 33.4253 42.9792C34.1934 42.4021 35.1215 42.1776 36.1136 42.1456C36.5617 42.0494 36.9458 41.857 37.2978 41.5684C37.9059 40.9913 38.546 40.5104 39.3141 40.318C39.6661 40.2539 40.0182 40.2218 40.3702 40.1897C40.6583 40.0615 40.8503 39.7088 41.0743 39.5485C42.1305 38.6187 43.5387 38.6507 44.6588 37.9133C45.2989 37.4324 46.003 37.1117 46.8351 37.1438C47.2192 37.1759 47.5712 37.24 47.8913 37.3682L48.1473 37.4965ZM49.2035 48.3978C48.4994 48.4298 48.0513 48.5902 47.5712 48.6543C47.6032 49.1032 47.8593 49.4879 48.2113 49.9688C48.4034 49.2314 49.0114 48.9428 49.2035 48.3978ZM67.222 48.5581C67.542 49.039 67.734 49.52 68.0221 50.033C68.3101 49.4879 68.5661 48.9749 68.8222 48.6543C68.7902 48.6222 67.9581 48.7184 67.222 48.5581ZM67.8941 50.9307C67.8621 51.0269 67.798 51.059 67.67 51.059C67.766 51.5078 67.446 52.3415 66.6459 52.3735C66.1018 52.4056 65.2057 51.8605 64.6936 51.8285C64.1495 51.7964 63.1574 52.2132 62.5813 51.3475C61.8132 52.2774 60.9171 52.5339 60.149 52.5018C59.7009 52.5018 59.2209 52.2453 59.8929 51.6682C58.4207 52.1491 58.4207 51.1552 58.6768 50.9628C58.8368 50.8345 59.0288 50.7383 59.5729 50.1933C61.6212 48.0451 60.8531 44.3258 63.0934 41.857C63.9575 40.8951 64.6616 40.3501 66.4218 39.0996C67.0299 38.6828 67.638 38.0736 68.2141 37.6568L68.2461 37.7209V37.6889C68.5982 37.4324 68.9182 37.1759 69.3023 37.0797C70.1024 36.9835 70.8385 37.24 71.4465 37.6568C71.7666 37.8812 72.0226 38.1377 72.2787 38.4584C72.4707 38.6507 72.7587 38.6507 73.0148 38.7469C73.7509 38.8752 74.391 39.1637 74.999 39.5485C75.4151 39.805 75.7671 40.2539 76.2792 40.318C76.8873 40.4142 77.4314 40.6066 77.9755 40.9272C78.6155 41.344 79.1916 41.857 79.9597 41.9853C81.4959 42.1456 82.7761 43.0113 83.9923 43.877C84.6964 44.2938 85.5285 44.7747 86.3926 44.4861C86.6487 44.39 86.8407 44.1655 86.9047 43.9411C86.9687 43.3639 86.6167 42.9151 86.2646 42.4983C85.5285 41.6326 84.2483 40.8951 84.4083 39.6447C84.6324 38.7149 85.6565 38.1698 86.4566 37.9133C86.9047 37.753 87.4488 37.8171 87.8328 37.4324C88.0248 37.3041 88.1209 36.8552 88.4409 37.0155C88.6969 37.1759 88.7289 37.4965 88.7609 37.7851C88.889 38.6828 88.6969 39.5806 87.8648 40.0936C87.4808 40.3501 87.0647 40.4462 86.6167 40.5424C87.2887 41.0875 87.9608 41.7608 88.3449 42.5303C88.5689 42.9792 88.6969 43.3639 88.7289 43.877C88.6969 44.8388 88.1209 45.6725 87.2887 46.1534C86.8087 46.4099 86.2646 46.5061 85.6885 46.5061C85.4645 46.5061 85.2725 46.442 85.0804 46.442C85.1764 46.8908 85.1764 47.5 85.0804 48.013C85.0484 48.2695 84.8884 48.5581 84.8884 48.8787C85.0164 49.039 85.2085 49.039 85.3685 49.039C85.7845 49.039 86.2966 49.007 86.5206 49.4558C86.7127 49.8727 86.8087 50.3536 86.9687 50.7704C87.0327 50.8345 87.0647 50.9948 87.1607 50.9628C87.4488 50.7063 87.7368 50.3536 88.1529 50.4498C88.5369 50.7063 88.921 50.9948 89.305 51.2834C89.401 51.3796 89.433 51.5078 89.465 51.6682C89.7851 51.7964 90.2012 52.0209 90.2972 52.4056C90.3612 52.6621 90.3292 52.9186 90.3932 53.143C90.4892 53.3995 90.7452 53.7202 90.5532 54.0408L90.4252 54.137L89.209 54.5217C89.113 54.5217 89.017 54.4576 88.921 54.3614C88.2809 54.3294 87.5128 54.5217 87.0007 54.0729C86.7767 53.8805 86.6167 53.656 86.4566 53.3995C86.0726 53.5919 85.5285 53.7202 85.1444 53.4637C84.3443 52.8545 83.5442 52.2453 82.4561 52.2774C81.976 52.3735 81.3999 52.5018 80.9199 52.3094C80.4718 51.9888 79.9597 51.8285 79.6077 51.3475C79.0956 50.8025 79.0956 50.1612 78.9036 49.4879C78.1995 49.6482 77.4314 49.552 76.7273 49.52C76.1512 49.4879 75.6071 49.5841 75.0631 49.7123C74.391 49.8406 73.6549 49.9047 72.9508 49.8727L72.5987 50.1292C72.7587 50.1612 72.9188 50.1612 73.0468 50.2895L73.1748 50.4177C73.7509 50.4818 74.423 50.3857 74.967 50.5139C75.0951 50.546 75.2231 50.6742 75.2871 50.8025C75.3511 50.9628 75.3511 51.1552 75.2551 51.2834C74.967 51.6682 74.807 52.117 74.423 52.4377C74.3269 52.5659 74.0389 52.4056 74.0069 52.63C73.8789 53.2072 73.3348 53.6881 72.7907 53.8164C72.5667 53.8484 72.3107 53.8164 72.1186 53.7522C71.4465 53.5278 70.7745 53.3354 70.1024 53.143C69.8783 53.0789 69.6863 52.8545 69.4943 52.7262C69.2062 52.7262 68.7902 52.8224 68.5982 52.5659C68.5021 52.5018 68.4061 52.2774 68.3741 52.1812C68.1501 51.8926 67.9901 51.3796 67.8941 50.9307Z"/>
</mask>
<path fill-rule="evenodd" clip-rule="evenodd" d="M48.1473 37.4965C48.3393 37.5927 48.5314 37.6889 48.7554 37.8171C49.6835 38.4584 50.2916 39.0034 51.6998 40.1897C52.1159 40.6066 52.5959 41.2799 52.948 41.6967C53.7161 42.6586 54.2602 43.3319 54.3562 44.1334C54.5802 45.7366 54.8042 46.6343 55.4123 48.2695C55.4763 48.4298 55.7324 48.6543 55.8924 48.8467C56.2764 49.3276 56.4365 50.0971 57.1406 50.5139C57.5246 50.7383 57.5886 50.7704 57.7166 50.8666C57.9087 51.0269 57.5886 51.604 56.5965 51.4758C57.1086 51.7323 57.0445 52.3094 56.3084 52.3415C54.8682 52.4056 53.9721 51.572 53.7801 51.3475C53.6841 51.2513 53.396 51.6361 52.884 51.8285C52.3719 52.085 51.6678 51.8285 51.1237 51.9247C50.6117 52.0209 49.9396 52.3415 49.3955 52.3735C48.4354 52.4056 48.3073 51.7323 48.3073 51.1552V50.8987C48.2113 51.2513 47.8593 51.8605 47.8593 51.8605C47.7313 52.1491 47.5392 52.5018 47.1872 52.63L46.163 52.7583C45.3629 53.111 44.5628 53.3675 43.7307 53.656C43.2506 53.7522 42.7066 53.656 42.3545 53.3675C42.0665 53.143 41.9064 52.8545 41.7464 52.5659C41.5864 52.5018 41.3624 52.5659 41.1703 52.5018C41.0103 52.4697 40.9143 52.3415 40.8183 52.2453L40.1142 51.059C40.0502 50.8987 40.0502 50.6742 40.1142 50.5139C40.2422 50.2574 40.5303 50.1292 40.8183 50.1292C41.3304 50.0971 41.9064 49.9368 42.4185 50.1292C42.6426 49.8727 42.9946 49.9047 43.3146 49.8406C43.1866 49.6482 42.9946 49.552 42.8346 49.3917C41.9064 49.6162 40.8823 49.4558 39.9862 49.2955C39.1541 49.1032 38.45 49.5841 37.6179 49.4558L37.3618 50.0009C36.9778 50.4177 36.9458 51.1231 36.3697 51.4117C35.9536 51.5079 35.6336 51.7964 35.2815 51.9888C34.6414 52.3415 33.7773 52.1812 33.0732 52.0529C32.7852 52.0209 32.5932 52.0529 32.3371 52.1491C32.1131 52.3094 31.8571 52.5659 31.601 52.7583C31.185 52.9186 30.8329 53.2713 30.3848 53.3034C30.1288 53.3034 29.8728 53.143 29.6167 53.2072C29.2967 53.5599 29.1367 54.137 28.6246 54.2973C28.1125 54.4576 27.4724 54.3294 26.9604 54.2011C26.8004 54.2652 26.7043 54.3935 26.5123 54.3614C26.1603 54.2652 25.8082 54.169 25.4882 53.9767C25.3602 53.8484 25.3281 53.6881 25.2961 53.5599C25.2961 53.3354 25.4882 53.143 25.5842 52.9507C25.6162 52.7262 25.6162 52.4056 25.7122 52.1812C25.8722 51.8285 26.2243 51.604 26.5763 51.4437C26.6083 51.1872 26.7683 50.9628 26.9924 50.8345C27.4084 50.6101 27.8565 50.0971 28.4006 50.3857L28.9767 50.8666C29.4887 50.6422 29.3607 50.1292 29.6167 49.7123C29.7448 49.4238 29.9048 49.1032 30.2248 49.1032C30.4489 49.0711 30.7049 49.1352 30.9289 49.1032C31.249 49.007 31.601 48.8787 31.825 48.6222L31.793 48.4298C31.473 47.8207 31.377 47.0832 31.345 46.3458C30.7689 46.4099 30.1608 46.5061 29.5527 46.3778C28.6566 46.2496 27.7925 45.5442 27.4404 44.6465C27.0564 43.7808 27.2164 42.5624 27.8245 41.8249C28.3046 41.2478 28.8486 40.7348 29.4247 40.2859C29.2327 40.2218 29.0087 40.2539 28.8166 40.1897C27.9845 40.0615 27.1524 39.3241 26.9604 38.4904C26.8324 37.9454 26.9604 37.4324 27.2164 36.9835C27.3124 36.8873 27.4084 36.7911 27.5685 36.8552C27.9845 37.0155 28.1125 37.24 28.4966 37.4324L28.7206 37.5606C29.7768 37.9133 31.185 37.9133 31.601 39.2279C31.8571 40.2539 31.217 41.0234 30.4809 41.6005C29.9048 42.0173 29.3287 42.5303 29.0407 43.1395C28.9126 43.5884 28.9767 44.0373 29.3607 44.3579C29.7448 44.7426 30.4169 44.7426 30.8969 44.5503C31.793 44.1655 32.6252 43.5884 33.4253 42.9792C34.1934 42.4021 35.1215 42.1776 36.1136 42.1456C36.5617 42.0494 36.9458 41.857 37.2978 41.5684C37.9059 40.9913 38.546 40.5104 39.3141 40.318C39.6661 40.2539 40.0182 40.2218 40.3702 40.1897C40.6583 40.0615 40.8503 39.7088 41.0743 39.5485C42.1305 38.6187 43.5387 38.6507 44.6588 37.9133C45.2989 37.4324 46.003 37.1117 46.8351 37.1438C47.2192 37.1759 47.5712 37.24 47.8913 37.3682L48.1473 37.4965ZM49.2035 48.3978C48.4994 48.4298 48.0513 48.5902 47.5712 48.6543C47.6032 49.1032 47.8593 49.4879 48.2113 49.9688C48.4034 49.2314 49.0114 48.9428 49.2035 48.3978ZM67.222 48.5581C67.542 49.039 67.734 49.52 68.0221 50.033C68.3101 49.4879 68.5661 48.9749 68.8222 48.6543C68.7902 48.6222 67.9581 48.7184 67.222 48.5581ZM67.8941 50.9307C67.8621 51.0269 67.798 51.059 67.67 51.059C67.766 51.5078 67.446 52.3415 66.6459 52.3735C66.1018 52.4056 65.2057 51.8605 64.6936 51.8285C64.1495 51.7964 63.1574 52.2132 62.5813 51.3475C61.8132 52.2774 60.9171 52.5339 60.149 52.5018C59.7009 52.5018 59.2209 52.2453 59.8929 51.6682C58.4207 52.1491 58.4207 51.1552 58.6768 50.9628C58.8368 50.8345 59.0288 50.7383 59.5729 50.1933C61.6212 48.0451 60.8531 44.3258 63.0934 41.857C63.9575 40.8951 64.6616 40.3501 66.4218 39.0996C67.0299 38.6828 67.638 38.0736 68.2141 37.6568L68.2461 37.7209V37.6889C68.5982 37.4324 68.9182 37.1759 69.3023 37.0797C70.1024 36.9835 70.8385 37.24 71.4465 37.6568C71.7666 37.8812 72.0226 38.1377 72.2787 38.4584C72.4707 38.6507 72.7587 38.6507 73.0148 38.7469C73.7509 38.8752 74.391 39.1637 74.999 39.5485C75.4151 39.805 75.7671 40.2539 76.2792 40.318C76.8873 40.4142 77.4314 40.6066 77.9755 40.9272C78.6155 41.344 79.1916 41.857 79.9597 41.9853C81.4959 42.1456 82.7761 43.0113 83.9923 43.877C84.6964 44.2938 85.5285 44.7747 86.3926 44.4861C86.6487 44.39 86.8407 44.1655 86.9047 43.9411C86.9687 43.3639 86.6167 42.9151 86.2646 42.4983C85.5285 41.6326 84.2483 40.8951 84.4083 39.6447C84.6324 38.7149 85.6565 38.1698 86.4566 37.9133C86.9047 37.753 87.4488 37.8171 87.8328 37.4324C88.0248 37.3041 88.1209 36.8552 88.4409 37.0155C88.6969 37.1759 88.7289 37.4965 88.7609 37.7851C88.889 38.6828 88.6969 39.5806 87.8648 40.0936C87.4808 40.3501 87.0647 40.4462 86.6167 40.5424C87.2887 41.0875 87.9608 41.7608 88.3449 42.5303C88.5689 42.9792 88.6969 43.3639 88.7289 43.877C88.6969 44.8388 88.1209 45.6725 87.2887 46.1534C86.8087 46.4099 86.2646 46.5061 85.6885 46.5061C85.4645 46.5061 85.2725 46.442 85.0804 46.442C85.1764 46.8908 85.1764 47.5 85.0804 48.013C85.0484 48.2695 84.8884 48.5581 84.8884 48.8787C85.0164 49.039 85.2085 49.039 85.3685 49.039C85.7845 49.039 86.2966 49.007 86.5206 49.4558C86.7127 49.8727 86.8087 50.3536 86.9687 50.7704C87.0327 50.8345 87.0647 50.9948 87.1607 50.9628C87.4488 50.7063 87.7368 50.3536 88.1529 50.4498C88.5369 50.7063 88.921 50.9948 89.305 51.2834C89.401 51.3796 89.433 51.5078 89.465 51.6682C89.7851 51.7964 90.2012 52.0209 90.2972 52.4056C90.3612 52.6621 90.3292 52.9186 90.3932 53.143C90.4892 53.3995 90.7452 53.7202 90.5532 54.0408L90.4252 54.137L89.209 54.5217C89.113 54.5217 89.017 54.4576 88.921 54.3614C88.2809 54.3294 87.5128 54.5217 87.0007 54.0729C86.7767 53.8805 86.6167 53.656 86.4566 53.3995C86.0726 53.5919 85.5285 53.7202 85.1444 53.4637C84.3443 52.8545 83.5442 52.2453 82.4561 52.2774C81.976 52.3735 81.3999 52.5018 80.9199 52.3094C80.4718 51.9888 79.9597 51.8285 79.6077 51.3475C79.0956 50.8025 79.0956 50.1612 78.9036 49.4879C78.1995 49.6482 77.4314 49.552 76.7273 49.52C76.1512 49.4879 75.6071 49.5841 75.0631 49.7123C74.391 49.8406 73.6549 49.9047 72.9508 49.8727L72.5987 50.1292C72.7587 50.1612 72.9188 50.1612 73.0468 50.2895L73.1748 50.4177C73.7509 50.4818 74.423 50.3857 74.967 50.5139C75.0951 50.546 75.2231 50.6742 75.2871 50.8025C75.3511 50.9628 75.3511 51.1552 75.2551 51.2834C74.967 51.6682 74.807 52.117 74.423 52.4377C74.3269 52.5659 74.0389 52.4056 74.0069 52.63C73.8789 53.2072 73.3348 53.6881 72.7907 53.8164C72.5667 53.8484 72.3107 53.8164 72.1186 53.7522C71.4465 53.5278 70.7745 53.3354 70.1024 53.143C69.8783 53.0789 69.6863 52.8545 69.4943 52.7262C69.2062 52.7262 68.7902 52.8224 68.5982 52.5659C68.5021 52.5018 68.4061 52.2774 68.3741 52.1812C68.1501 51.8926 67.9901 51.3796 67.8941 50.9307Z" fill="#15161A" stroke="white" stroke-width="1.5" mask="url(#path-4-inside-1_13_191)"/>
<mask id="path-5-outside-2_13_191" maskUnits="userSpaceOnUse" x="24.8118" y="36.1758" width="66" height="19" fill="black">
<rect fill="white" x="24.8118" y="36.1758" width="66" height="19"/>
<path fill-rule="evenodd" clip-rule="evenodd" d="M47.8273 41.5363C48.0193 42.0172 48.0193 42.6585 47.8913 43.1715C47.8593 43.2035 47.8273 43.2035 47.7953 43.1715C47.6993 42.7226 47.6032 42.2737 47.4432 41.8249C47.3472 41.5684 47.0272 41.3439 47.1552 41.0554C47.2192 40.9912 47.3472 40.9912 47.4432 41.0233C47.6032 41.1836 47.6993 41.3439 47.8273 41.5363ZM52.948 46.0251C53.3 46.4419 53.5561 46.8907 53.428 47.4358C53.364 47.532 53.396 47.7244 53.236 47.7564C53.172 47.7885 53.108 47.7244 53.108 47.6603C53.076 47.3717 53.076 47.0511 52.916 46.8266C52.724 46.6343 52.4999 46.2495 52.1799 46.2495C51.9558 46.3136 51.7958 46.5701 51.6678 46.7304C51.6678 46.7625 51.6358 46.7625 51.6038 46.7304C51.4758 46.4098 51.7318 46.1533 51.8278 45.8968C52.0199 45.7044 51.9878 45.1594 52.4039 45.3197C52.6919 45.5121 52.756 45.8327 52.948 46.0251ZM52.2759 49.8405C52.3079 50.0329 52.3079 50.3215 52.1159 50.4497C51.9238 50.5138 51.6678 50.5459 51.4438 50.5138C51.3798 50.4818 51.3158 50.4497 51.3478 50.3856C51.4438 50.097 51.7318 49.7764 52.0519 49.7123C52.1159 49.7123 52.2439 49.7123 52.2759 49.8405ZM28.9126 38.1377C29.6808 38.33 30.5129 38.33 31.0889 38.9392C31.409 39.324 31.441 39.9973 31.185 40.382C30.7369 41.1515 29.8408 41.5363 29.2967 42.2096C28.7526 42.6585 28.5606 43.3639 28.7206 44.0692C28.9126 44.6784 29.5207 45.0952 30.1288 45.1273C31.0889 45.1594 31.793 44.6784 32.5611 44.2296C33.3293 43.6845 34.0334 42.9791 34.8975 42.7547C35.4736 42.5623 36.1136 42.6585 36.6897 42.4341C37.2978 42.3058 37.7779 41.7928 38.2579 41.3439C38.802 40.895 39.4421 40.6385 40.1462 40.6706C40.7863 40.7668 41.1383 40.1897 41.5864 39.8049C42.3225 39.1316 43.2826 39.0675 44.1468 38.6827C44.7548 38.4903 45.2349 38.0415 45.811 37.7529C46.3551 37.5285 47.0912 37.4643 47.6352 37.6888C47.9873 37.8491 48.3713 38.0094 48.6914 38.2659L51.2838 40.4462C51.3158 40.5424 51.4118 40.6065 51.4758 40.6385C52.2119 41.5363 52.98 42.402 53.5881 43.3959C53.7801 43.7486 53.8761 44.1013 53.9721 44.4861C54.1001 45.9609 54.4842 47.2434 54.9643 48.5259C55.0923 48.7183 55.3483 48.8786 55.4763 49.071C55.8924 49.6481 56.1484 50.3856 56.8205 50.7703L57.2046 50.9627C57.2366 50.9948 57.2366 51.0589 57.2046 51.091L57.1406 51.1551C56.3405 51.2833 55.7324 50.8024 55.3163 50.2253C55.0603 49.7123 54.7082 49.1672 54.1321 48.9428C54.1001 48.9428 54.0681 48.9748 54.0681 48.9748C54.1321 49.1672 54.3242 49.2954 54.3882 49.4558C54.6122 49.8084 54.8042 50.1932 54.9003 50.578C55.0283 50.9948 55.4763 51.2833 55.8284 51.5078L56.3405 51.7643C56.4045 51.7963 56.4365 51.8925 56.3725 51.9566L56.3084 51.9887C55.4443 52.0208 54.6762 51.7322 54.0681 51.091C53.9401 50.9306 53.7481 50.8024 53.5241 50.8024C53.14 51.1551 52.756 51.4757 52.2439 51.5078C51.6998 51.4116 51.1237 51.4116 50.6437 51.604C50.1956 51.7643 49.7475 51.9566 49.2675 51.9566C49.0434 51.9566 48.7874 51.8605 48.6914 51.636C48.6914 51.3475 48.4994 51.0268 48.6594 50.7383L48.9794 50.2573C48.9794 50.1932 48.9474 50.1291 48.8834 50.1291C48.7554 50.097 48.5314 50.3214 48.4674 50.097C48.4994 49.6161 48.9794 49.2954 49.2995 48.9748C49.3635 48.5901 49.5235 48.2374 49.8115 47.9168C49.8115 47.8847 49.7795 47.8206 49.7155 47.8206C49.2995 47.8847 48.8834 47.9809 48.4354 47.9809C48.0833 48.1733 47.6352 48.3015 47.2192 48.1733C47.1232 48.1091 47.1552 48.0129 47.1872 47.9488C47.6352 47.3396 47.7953 46.5701 47.6672 45.8327C47.6352 45.8006 47.6352 45.7365 47.5712 45.7365C47.5072 45.7365 47.5072 45.8006 47.4752 45.8327C47.3792 46.5381 47.1552 47.0831 46.7711 47.6923C46.4831 47.9809 46.035 47.9809 45.651 48.0771C45.555 48.1091 45.4589 48.2053 45.4589 48.3015C45.4589 48.558 45.619 48.7183 45.715 48.9428L46.5471 50.4818C46.5791 50.8986 46.3871 51.3154 46.2911 51.7001C46.3231 51.7643 46.3871 51.7322 46.4511 51.7001C46.7391 51.4436 46.9311 51.0909 47.0592 50.7062C47.0912 50.5459 47.0272 50.3535 46.9631 50.2253L46.099 48.4939C46.163 48.3977 46.2911 48.3977 46.3871 48.3656C46.5791 48.3656 46.7711 48.4618 46.9631 48.5259C47.1552 49.0389 47.3792 49.584 47.7313 50.0329C47.7953 50.3215 47.8913 50.7062 47.6993 50.9306C47.5072 51.3154 47.3152 51.636 47.0592 51.9887C46.8351 52.2131 46.5151 52.1811 46.195 52.2131H46.099C45.3309 52.63 44.5308 52.8865 43.6987 53.143C43.3466 53.3033 42.9306 53.175 42.6425 52.9506C42.3545 52.7261 42.2265 52.4055 42.0345 52.117C41.8104 51.8284 41.4584 52.0849 41.2023 51.9246C40.9783 51.5719 40.7543 51.2192 40.5623 50.8345C40.5623 50.7383 40.5623 50.6421 40.6583 50.578C40.9463 50.4818 41.2664 50.4818 41.5864 50.4497C41.8744 50.4176 42.1945 50.4818 42.3865 50.6741C42.7706 51.123 42.9306 51.7322 43.5067 52.0208C43.9547 52.0528 44.3388 51.9246 44.7228 51.7322C44.9469 51.604 45.2029 51.4116 45.2029 51.123C45.1709 50.5459 44.7868 50.097 44.3068 49.7764C43.8267 49.5199 43.3146 49.1672 42.9626 48.7183C42.7706 48.4618 42.7386 48.1733 42.6425 47.9168C42.6105 47.8526 42.4825 47.8526 42.4505 47.8847C42.2585 48.045 42.4185 48.3336 42.4185 48.5259C42.4505 48.6542 42.5145 48.8145 42.4505 48.9107C42.1625 49.1351 41.7784 49.0069 41.4264 49.0389C40.7223 49.0069 40.0502 48.7183 39.3141 48.7824C38.61 48.8145 37.6499 49.2954 37.1378 48.5901C36.8818 47.9168 36.9458 47.1152 37.0738 46.4419C37.0738 46.3778 37.0098 46.3136 36.9458 46.3136C36.8818 46.2816 36.8177 46.3136 36.7857 46.3777C36.5937 47.0511 36.5617 47.7885 36.4017 48.4939C36.1456 49.1031 35.6976 49.7443 35.0895 50.0649C34.5454 50.3535 33.9053 50.4497 33.2332 50.5138C32.0171 50.5459 30.8969 50.7703 30.1288 51.8284C30.0648 51.9246 29.9688 52.0208 30.0008 52.149C30.0328 52.1811 30.1288 52.2131 30.1608 52.1811C30.9929 51.2513 32.0491 50.8665 33.2652 50.9306C34.4174 50.9306 35.5696 50.7383 36.3057 49.7443C36.4977 49.5199 36.6257 49.2954 36.7857 49.0389C36.9138 49.0389 37.0098 49.1993 37.1058 49.2634C37.1378 49.6161 36.8497 49.8405 36.7217 50.1291C36.5617 50.4497 36.4017 50.8344 36.0816 51.0268C35.6976 51.123 35.3775 51.3795 35.0255 51.5719C34.6734 51.7322 34.2254 51.7963 33.8093 51.7001C33.2973 51.604 32.5932 51.4757 32.0811 51.7001C31.825 51.8605 31.601 52.149 31.345 52.3093C30.9929 52.4696 30.6729 52.7582 30.2568 52.7261C29.9688 52.662 29.6167 52.4696 29.3607 52.7261C29.0407 53.0147 28.9767 53.5277 28.5606 53.7201C28.0805 53.9766 27.5685 53.7201 27.0884 53.688C27.1524 53.2071 27.2164 52.7582 27.5365 52.4055C27.7285 52.3735 27.8885 52.3414 28.0485 52.2131C28.2405 52.0528 28.3686 51.8284 28.4966 51.604C28.9126 51.3475 29.3927 51.1551 29.6487 50.7062C29.8408 50.2894 29.8408 49.9046 30.1608 49.5199L30.3208 49.4558L31.185 49.3916C31.537 49.2313 31.8571 49.071 32.1771 48.8145C32.2731 48.7183 32.3051 48.558 32.2731 48.3977C32.1131 47.9809 31.9851 47.6923 31.8891 47.2434C31.793 46.7946 31.8571 46.3457 31.793 45.8327C31.761 45.8006 31.729 45.7044 31.665 45.7044C31.0889 45.8327 30.5449 45.993 29.9048 45.8968C29.0407 45.8006 28.1445 45.2235 27.8245 44.3578C27.5365 43.6204 27.6005 42.5623 28.1445 41.9531C28.6566 41.3119 29.2967 40.8309 29.9368 40.2859C30.0328 40.2217 30.0328 40.0935 30.0648 39.9973C30.0648 39.869 29.9368 39.7729 29.8408 39.7087C29.4567 39.6125 29.0087 39.7408 28.6246 39.5805C27.9525 39.356 27.4404 38.7148 27.3444 38.0094C27.3124 37.6888 27.3764 37.4323 27.5365 37.1758C28.0485 37.6247 28.4326 38.0094 28.9126 38.1377ZM26.9924 52.4696V52.5658C26.8324 52.9506 26.7363 53.3995 26.6083 53.8483C26.3203 53.8163 26.0642 53.7201 25.8402 53.6239C25.7762 53.5598 25.8402 53.4956 25.8402 53.4315C26.1283 53.175 26.0322 52.8544 26.0963 52.5017C26.1283 52.3093 26.3203 52.149 26.5123 52.0528C26.7363 52.0849 26.8644 52.3093 26.9924 52.4696ZM28.4006 51.123C28.2405 51.4436 28.0165 51.8284 27.6645 52.0208C27.5365 52.0528 27.3764 52.0528 27.2484 51.9887C27.1844 51.9246 27.0564 51.8605 27.0564 51.7322C27.0884 51.604 27.0244 51.4436 27.1524 51.3795C27.4084 51.2192 27.6645 51.0589 27.9205 50.8345C27.9845 50.8024 28.1125 50.7703 28.1445 50.8345C28.2726 50.9306 28.3686 50.9948 28.4006 51.123ZM44.4348 50.9948C44.4668 51.123 44.6588 51.2833 44.5308 51.4116C44.2748 51.604 43.9867 51.7322 43.6347 51.7001C43.3787 51.5078 43.4107 51.1551 43.1866 50.8986C43.1226 50.7062 42.8346 50.7062 42.8986 50.5138L42.9946 50.4497C43.3466 50.4497 43.6987 50.4497 44.0507 50.3856C44.4028 50.3535 44.3068 50.7703 44.4348 50.9948ZM64.6616 45.7686C64.8536 46.0251 65.0137 46.2816 65.1417 46.6022C65.1737 46.6663 65.1417 46.7304 65.1097 46.7946C65.0777 46.8587 65.0137 46.9228 64.9176 46.8587C64.6936 46.7946 64.7256 46.4419 64.4376 46.4739C64.2456 46.4739 64.1175 46.6342 63.9575 46.7304C63.6695 46.9869 63.2854 47.2434 63.2214 47.6282C63.1574 47.7564 63.1894 47.9809 63.0614 48.045C62.9974 48.0771 62.9014 48.0129 62.9014 47.9488C62.8694 47.4358 63.0294 46.9549 63.3814 46.6022C63.7335 46.3136 63.9895 45.8968 64.2776 45.5441C64.4696 45.5121 64.5976 45.6403 64.6616 45.7686ZM64.7896 50.0329C64.8536 50.1611 64.9817 50.3214 64.8856 50.4818C64.7576 50.5779 64.5336 50.5138 64.3736 50.5138C64.1815 50.4176 64.1175 50.1611 64.1175 49.9367C64.1175 49.8726 64.1175 49.8405 64.1815 49.7764C64.4056 49.7764 64.6296 49.8405 64.7896 50.0329ZM69.5903 40.2217C69.6863 40.35 69.5903 40.4782 69.5263 40.5744C69.0782 40.9912 68.5341 41.4401 68.2141 41.9531C68.0861 42.1134 67.9901 42.3058 67.9261 42.4982C67.9261 42.5302 67.8941 42.5302 67.8621 42.5302C67.766 42.2737 67.8941 41.9852 67.9581 41.7287C68.1821 41.1195 68.6942 40.5424 69.2382 40.1255C69.3023 40.0935 69.5263 40.0614 69.5903 40.2217ZM71.4145 38.1697C71.7666 38.3942 71.8946 38.8751 72.3107 38.9713C73.0148 39.1316 73.7189 39.2919 74.359 39.6125C74.807 39.837 75.2231 40.1576 75.6391 40.5103C76.0232 40.7027 76.5033 40.7027 76.9193 40.8309C77.5274 40.9912 78.0075 41.4401 78.5515 41.7928C79.2556 42.3379 80.2478 42.2737 81.0479 42.6264C82.3281 43.0432 83.3522 44.0372 84.5364 44.6143C85.1444 44.9349 86.0726 45.0632 86.6807 44.7105C87.0967 44.4219 87.3528 44.0372 87.2567 43.4921C87.0327 42.1775 85.5925 41.5042 84.9204 40.4141C84.7924 40.1576 84.6964 39.8049 84.7604 39.5164C85.0164 38.8751 85.6885 38.5224 86.2646 38.298C86.7127 38.0735 87.2887 38.1377 87.7048 37.8812C87.8648 37.785 87.9928 37.6567 88.0889 37.5605C88.1849 37.5605 88.1849 37.6567 88.2169 37.7208C88.3449 38.4903 88.2169 39.2919 87.5448 39.7408C87.2887 39.9332 86.9687 39.9973 86.6807 40.0614C86.4246 40.1576 85.9126 39.9652 85.9446 40.4141C86.0086 40.6385 86.2006 40.7668 86.3606 40.9271C87.2567 41.6645 88.0889 42.6264 88.1849 43.7807C88.2169 44.6784 87.6088 45.4479 86.8407 45.8327C86.2646 46.0571 85.5605 46.1533 84.9524 45.993C84.7924 45.9609 84.5364 45.8006 84.4084 46.0251C84.3763 46.2816 84.5364 46.4739 84.5364 46.6984C84.6004 47.1152 84.6004 47.6603 84.4724 48.0771C84.4083 48.3977 84.0883 48.7824 84.3763 49.1031C84.6644 49.5519 85.2405 49.4237 85.7205 49.4878C85.9766 49.5199 86.0726 49.8084 86.1366 50.0008C86.2326 50.2573 86.2326 50.5459 86.3286 50.7383C86.3286 51.2192 86.8727 51.4116 87.1287 51.7322C87.4488 52.0849 87.7368 52.6941 88.2809 52.662C88.4729 53.0468 88.5689 53.3995 88.6329 53.8483L88.5689 53.9125C88.1209 53.9125 87.5128 54.0407 87.1927 53.7201C86.8087 53.4636 86.6807 52.7582 86.1046 52.9506C85.8485 53.143 85.4965 53.2071 85.2085 53.0788C84.9204 52.9826 84.7284 52.7261 84.4724 52.5658C83.7042 51.9887 82.6801 51.7001 81.688 51.9246C81.1119 52.0849 80.6638 51.6681 80.2158 51.4116C79.6077 51.1551 79.4477 50.5138 79.3196 49.9688L79.2236 49.2954C79.2236 49.2313 79.2876 49.1672 79.3516 49.1351H79.4477C79.7997 49.9367 80.4718 50.8345 81.3359 51.123C82.136 51.4436 82.8721 51.0268 83.7363 51.1871C84.5364 51.2833 85.1765 51.7963 85.7845 52.2773C85.8485 52.2773 85.8805 52.2452 85.9126 52.1811V52.117C85.1765 51.1871 84.1523 50.7062 82.9682 50.8024C81.976 50.9948 81.0159 50.6741 80.4398 49.8405C80.1198 49.3596 79.8957 48.8466 79.7997 48.3015C79.7037 47.6603 79.5757 46.9549 79.3516 46.3777C79.2876 46.3457 79.2236 46.2816 79.1596 46.3136L79.0956 46.4098C79.1916 47.019 79.3837 47.7564 79.1596 48.3977C78.9996 48.9107 78.4875 49.1031 78.0075 49.1351C77.5274 49.1672 77.0793 49.071 76.5673 49.071C75.4151 49.0389 74.391 49.4878 73.2068 49.3916C73.3028 49.1031 73.4948 48.8145 73.3988 48.4939C73.3668 48.4298 73.2708 48.4298 73.2068 48.4298C72.9828 48.558 73.0148 48.8466 72.8867 49.0389C72.6307 49.4558 72.1506 49.8405 71.6706 49.9367C71.3185 50.1932 70.9985 50.5459 70.7104 50.8665C70.6144 50.9627 70.6144 51.1551 70.6464 51.2833C70.8705 51.8605 71.5426 51.9246 72.0546 52.0849C72.3107 52.117 72.5347 52.0208 72.6627 51.7963C72.8867 51.4436 72.9188 50.8665 73.4308 50.8024H74.551C74.647 50.8344 74.711 50.8986 74.775 50.9948L74.743 51.1551C74.487 51.4436 74.391 51.8605 74.0709 52.0528C73.8789 52.117 73.6549 52.0528 73.5268 52.2131C73.4628 52.5979 73.3668 53.0147 72.9828 53.2071C72.6947 53.4636 72.2787 53.3353 71.9586 53.2391C71.3505 53.0147 70.7425 52.8865 70.1344 52.6941C69.8783 52.63 69.7823 52.3093 69.4943 52.2452C69.2382 52.1811 68.9502 52.3735 68.7262 52.149C68.5982 51.8605 68.5341 51.6681 68.4701 51.3475C68.3741 51.1551 68.3101 50.9306 68.2781 50.7062C68.2461 50.5138 68.2781 50.3856 68.3421 50.2253L69.1742 48.7183C69.2382 48.6221 69.3023 48.5259 69.3983 48.4939C69.5903 48.5259 69.8143 48.6221 70.0063 48.7183L69.9743 48.8145L69.1102 50.1291C68.9182 50.5459 69.1102 51.0268 69.3023 51.3795C69.3343 51.4116 69.3663 51.4757 69.3983 51.4436C69.3663 51.1871 69.3343 50.9306 69.3983 50.6421C69.4623 50.3856 69.6223 50.1611 69.7503 49.9367L70.4224 48.9428C70.4864 48.7824 70.4864 48.5259 70.3584 48.3656C70.0704 48.0771 69.6543 47.9809 69.3983 47.5961C68.8542 46.8587 68.7902 45.993 68.7262 45.0632C68.7262 44.9991 68.6622 44.9029 68.5661 44.8708C68.5021 44.8387 68.4381 44.9349 68.4061 44.967C68.2461 45.5762 68.3421 46.3136 68.5021 46.8587C68.5982 47.2755 68.7902 47.6923 68.9822 48.0771C69.0142 48.1412 68.9502 48.2374 68.8862 48.2694C68.4381 48.3015 67.9901 48.2694 67.574 48.2053C66.9979 48.1091 66.5819 47.6603 66.1018 47.3076C66.0378 47.2755 66.0058 47.3396 65.9738 47.3717C66.1018 48.0129 66.8059 48.3977 67.0299 48.9748C67.1579 49.4558 67.638 49.8084 67.734 50.3214C67.734 50.3856 67.67 50.4818 67.606 50.5138C67.446 50.5459 67.286 50.4497 67.1259 50.5459C67.0939 50.8344 67.286 51.123 67.158 51.3795C66.9979 51.636 66.7739 51.9246 66.4859 51.9246C65.9098 51.7322 65.3337 51.4757 64.7576 51.3154C64.3416 51.2833 63.9255 51.3475 63.5415 51.3795C63.1574 51.3154 62.9014 50.9627 62.6133 50.7703C62.5173 50.7383 62.4213 50.7383 62.3573 50.8024C61.7172 51.4436 61.0131 52.149 60.053 52.117C59.989 52.117 59.957 52.0528 59.957 51.9887V51.9246C60.373 51.5398 60.8851 51.1551 61.0771 50.61C61.2051 50.1611 61.5892 49.8405 61.7492 49.4237C61.7812 49.3596 61.7172 49.3275 61.6532 49.2954L61.5572 49.3596C61.0771 49.8405 60.7251 50.3856 60.373 50.8986C60.021 51.2513 59.5089 51.4757 58.9648 51.3475C58.9008 51.3154 58.9008 51.2192 58.9328 51.1551C60.9171 49.9367 61.1411 47.7564 61.6852 45.7686C62.0692 44.454 62.3573 43.1074 63.3814 42.0493C64.9176 40.35 66.8379 39.356 68.5341 37.8812C68.7902 37.6567 69.0462 37.4323 69.3663 37.4323C70.1984 37.3682 70.8385 37.6888 71.4145 38.1697ZM89.6891 52.3414C89.8491 52.5658 89.7851 52.9185 89.8491 53.175C89.8811 53.3674 90.1371 53.5277 90.0091 53.7201L89.305 53.9445C89.177 53.9445 89.241 53.7842 89.177 53.7201C89.113 53.3033 89.017 53.0147 88.889 52.63C88.857 52.4055 89.081 52.2452 89.241 52.117C89.401 52.0528 89.5291 52.2452 89.6891 52.3414ZM88.0569 50.8986C88.3129 51.123 88.6649 51.2833 88.857 51.5719C88.889 51.7001 88.793 51.8284 88.729 51.9246C88.6329 52.0208 88.5049 52.0849 88.3449 52.0849C88.1849 52.0849 88.0568 51.9887 87.9608 51.8605C87.8008 51.604 87.5768 51.3795 87.5128 51.123C87.6088 50.9627 87.8328 50.7062 88.0569 50.8986ZM72.6307 50.6421C72.5987 50.9627 72.5027 51.2513 72.3747 51.5398C72.2787 51.7322 71.9906 51.6681 71.7986 51.636C71.6066 51.5719 71.2865 51.5398 71.2545 51.2513C71.2225 50.9948 71.3505 50.7383 71.4786 50.5459C71.7666 50.5138 72.1186 50.578 72.4067 50.5138C72.5347 50.5138 72.6307 50.5459 72.6307 50.6421Z"/>
</mask>
<path fill-rule="evenodd" clip-rule="evenodd" d="M47.8273 41.5363C48.0193 42.0172 48.0193 42.6585 47.8913 43.1715C47.8593 43.2035 47.8273 43.2035 47.7953 43.1715C47.6993 42.7226 47.6032 42.2737 47.4432 41.8249C47.3472 41.5684 47.0272 41.3439 47.1552 41.0554C47.2192 40.9912 47.3472 40.9912 47.4432 41.0233C47.6032 41.1836 47.6993 41.3439 47.8273 41.5363ZM52.948 46.0251C53.3 46.4419 53.5561 46.8907 53.428 47.4358C53.364 47.532 53.396 47.7244 53.236 47.7564C53.172 47.7885 53.108 47.7244 53.108 47.6603C53.076 47.3717 53.076 47.0511 52.916 46.8266C52.724 46.6343 52.4999 46.2495 52.1799 46.2495C51.9558 46.3136 51.7958 46.5701 51.6678 46.7304C51.6678 46.7625 51.6358 46.7625 51.6038 46.7304C51.4758 46.4098 51.7318 46.1533 51.8278 45.8968C52.0199 45.7044 51.9878 45.1594 52.4039 45.3197C52.6919 45.5121 52.756 45.8327 52.948 46.0251ZM52.2759 49.8405C52.3079 50.0329 52.3079 50.3215 52.1159 50.4497C51.9238 50.5138 51.6678 50.5459 51.4438 50.5138C51.3798 50.4818 51.3158 50.4497 51.3478 50.3856C51.4438 50.097 51.7318 49.7764 52.0519 49.7123C52.1159 49.7123 52.2439 49.7123 52.2759 49.8405ZM28.9126 38.1377C29.6808 38.33 30.5129 38.33 31.0889 38.9392C31.409 39.324 31.441 39.9973 31.185 40.382C30.7369 41.1515 29.8408 41.5363 29.2967 42.2096C28.7526 42.6585 28.5606 43.3639 28.7206 44.0692C28.9126 44.6784 29.5207 45.0952 30.1288 45.1273C31.0889 45.1594 31.793 44.6784 32.5611 44.2296C33.3293 43.6845 34.0334 42.9791 34.8975 42.7547C35.4736 42.5623 36.1136 42.6585 36.6897 42.4341C37.2978 42.3058 37.7779 41.7928 38.2579 41.3439C38.802 40.895 39.4421 40.6385 40.1462 40.6706C40.7863 40.7668 41.1383 40.1897 41.5864 39.8049C42.3225 39.1316 43.2826 39.0675 44.1468 38.6827C44.7548 38.4903 45.2349 38.0415 45.811 37.7529C46.3551 37.5285 47.0912 37.4643 47.6352 37.6888C47.9873 37.8491 48.3713 38.0094 48.6914 38.2659L51.2838 40.4462C51.3158 40.5424 51.4118 40.6065 51.4758 40.6385C52.2119 41.5363 52.98 42.402 53.5881 43.3959C53.7801 43.7486 53.8761 44.1013 53.9721 44.4861C54.1001 45.9609 54.4842 47.2434 54.9643 48.5259C55.0923 48.7183 55.3483 48.8786 55.4763 49.071C55.8924 49.6481 56.1484 50.3856 56.8205 50.7703L57.2046 50.9627C57.2366 50.9948 57.2366 51.0589 57.2046 51.091L57.1406 51.1551C56.3405 51.2833 55.7324 50.8024 55.3163 50.2253C55.0603 49.7123 54.7082 49.1672 54.1321 48.9428C54.1001 48.9428 54.0681 48.9748 54.0681 48.9748C54.1321 49.1672 54.3242 49.2954 54.3882 49.4558C54.6122 49.8084 54.8042 50.1932 54.9003 50.578C55.0283 50.9948 55.4763 51.2833 55.8284 51.5078L56.3405 51.7643C56.4045 51.7963 56.4365 51.8925 56.3725 51.9566L56.3084 51.9887C55.4443 52.0208 54.6762 51.7322 54.0681 51.091C53.9401 50.9306 53.7481 50.8024 53.5241 50.8024C53.14 51.1551 52.756 51.4757 52.2439 51.5078C51.6998 51.4116 51.1237 51.4116 50.6437 51.604C50.1956 51.7643 49.7475 51.9566 49.2675 51.9566C49.0434 51.9566 48.7874 51.8605 48.6914 51.636C48.6914 51.3475 48.4994 51.0268 48.6594 50.7383L48.9794 50.2573C48.9794 50.1932 48.9474 50.1291 48.8834 50.1291C48.7554 50.097 48.5314 50.3214 48.4674 50.097C48.4994 49.6161 48.9794 49.2954 49.2995 48.9748C49.3635 48.5901 49.5235 48.2374 49.8115 47.9168C49.8115 47.8847 49.7795 47.8206 49.7155 47.8206C49.2995 47.8847 48.8834 47.9809 48.4354 47.9809C48.0833 48.1733 47.6352 48.3015 47.2192 48.1733C47.1232 48.1091 47.1552 48.0129 47.1872 47.9488C47.6352 47.3396 47.7953 46.5701 47.6672 45.8327C47.6352 45.8006 47.6352 45.7365 47.5712 45.7365C47.5072 45.7365 47.5072 45.8006 47.4752 45.8327C47.3792 46.5381 47.1552 47.0831 46.7711 47.6923C46.4831 47.9809 46.035 47.9809 45.651 48.0771C45.555 48.1091 45.4589 48.2053 45.4589 48.3015C45.4589 48.558 45.619 48.7183 45.715 48.9428L46.5471 50.4818C46.5791 50.8986 46.3871 51.3154 46.2911 51.7001C46.3231 51.7643 46.3871 51.7322 46.4511 51.7001C46.7391 51.4436 46.9311 51.0909 47.0592 50.7062C47.0912 50.5459 47.0272 50.3535 46.9631 50.2253L46.099 48.4939C46.163 48.3977 46.2911 48.3977 46.3871 48.3656C46.5791 48.3656 46.7711 48.4618 46.9631 48.5259C47.1552 49.0389 47.3792 49.584 47.7313 50.0329C47.7953 50.3215 47.8913 50.7062 47.6993 50.9306C47.5072 51.3154 47.3152 51.636 47.0592 51.9887C46.8351 52.2131 46.5151 52.1811 46.195 52.2131H46.099C45.3309 52.63 44.5308 52.8865 43.6987 53.143C43.3466 53.3033 42.9306 53.175 42.6425 52.9506C42.3545 52.7261 42.2265 52.4055 42.0345 52.117C41.8104 51.8284 41.4584 52.0849 41.2023 51.9246C40.9783 51.5719 40.7543 51.2192 40.5623 50.8345C40.5623 50.7383 40.5623 50.6421 40.6583 50.578C40.9463 50.4818 41.2664 50.4818 41.5864 50.4497C41.8744 50.4176 42.1945 50.4818 42.3865 50.6741C42.7706 51.123 42.9306 51.7322 43.5067 52.0208C43.9547 52.0528 44.3388 51.9246 44.7228 51.7322C44.9469 51.604 45.2029 51.4116 45.2029 51.123C45.1709 50.5459 44.7868 50.097 44.3068 49.7764C43.8267 49.5199 43.3146 49.1672 42.9626 48.7183C42.7706 48.4618 42.7386 48.1733 42.6425 47.9168C42.6105 47.8526 42.4825 47.8526 42.4505 47.8847C42.2585 48.045 42.4185 48.3336 42.4185 48.5259C42.4505 48.6542 42.5145 48.8145 42.4505 48.9107C42.1625 49.1351 41.7784 49.0069 41.4264 49.0389C40.7223 49.0069 40.0502 48.7183 39.3141 48.7824C38.61 48.8145 37.6499 49.2954 37.1378 48.5901C36.8818 47.9168 36.9458 47.1152 37.0738 46.4419C37.0738 46.3778 37.0098 46.3136 36.9458 46.3136C36.8818 46.2816 36.8177 46.3136 36.7857 46.3777C36.5937 47.0511 36.5617 47.7885 36.4017 48.4939C36.1456 49.1031 35.6976 49.7443 35.0895 50.0649C34.5454 50.3535 33.9053 50.4497 33.2332 50.5138C32.0171 50.5459 30.8969 50.7703 30.1288 51.8284C30.0648 51.9246 29.9688 52.0208 30.0008 52.149C30.0328 52.1811 30.1288 52.2131 30.1608 52.1811C30.9929 51.2513 32.0491 50.8665 33.2652 50.9306C34.4174 50.9306 35.5696 50.7383 36.3057 49.7443C36.4977 49.5199 36.6257 49.2954 36.7857 49.0389C36.9138 49.0389 37.0098 49.1993 37.1058 49.2634C37.1378 49.6161 36.8497 49.8405 36.7217 50.1291C36.5617 50.4497 36.4017 50.8344 36.0816 51.0268C35.6976 51.123 35.3775 51.3795 35.0255 51.5719C34.6734 51.7322 34.2254 51.7963 33.8093 51.7001C33.2973 51.604 32.5932 51.4757 32.0811 51.7001C31.825 51.8605 31.601 52.149 31.345 52.3093C30.9929 52.4696 30.6729 52.7582 30.2568 52.7261C29.9688 52.662 29.6167 52.4696 29.3607 52.7261C29.0407 53.0147 28.9767 53.5277 28.5606 53.7201C28.0805 53.9766 27.5685 53.7201 27.0884 53.688C27.1524 53.2071 27.2164 52.7582 27.5365 52.4055C27.7285 52.3735 27.8885 52.3414 28.0485 52.2131C28.2405 52.0528 28.3686 51.8284 28.4966 51.604C28.9126 51.3475 29.3927 51.1551 29.6487 50.7062C29.8408 50.2894 29.8408 49.9046 30.1608 49.5199L30.3208 49.4558L31.185 49.3916C31.537 49.2313 31.8571 49.071 32.1771 48.8145C32.2731 48.7183 32.3051 48.558 32.2731 48.3977C32.1131 47.9809 31.9851 47.6923 31.8891 47.2434C31.793 46.7946 31.8571 46.3457 31.793 45.8327C31.761 45.8006 31.729 45.7044 31.665 45.7044C31.0889 45.8327 30.5449 45.993 29.9048 45.8968C29.0407 45.8006 28.1445 45.2235 27.8245 44.3578C27.5365 43.6204 27.6005 42.5623 28.1445 41.9531C28.6566 41.3119 29.2967 40.8309 29.9368 40.2859C30.0328 40.2217 30.0328 40.0935 30.0648 39.9973C30.0648 39.869 29.9368 39.7729 29.8408 39.7087C29.4567 39.6125 29.0087 39.7408 28.6246 39.5805C27.9525 39.356 27.4404 38.7148 27.3444 38.0094C27.3124 37.6888 27.3764 37.4323 27.5365 37.1758C28.0485 37.6247 28.4326 38.0094 28.9126 38.1377ZM26.9924 52.4696V52.5658C26.8324 52.9506 26.7363 53.3995 26.6083 53.8483C26.3203 53.8163 26.0642 53.7201 25.8402 53.6239C25.7762 53.5598 25.8402 53.4956 25.8402 53.4315C26.1283 53.175 26.0322 52.8544 26.0963 52.5017C26.1283 52.3093 26.3203 52.149 26.5123 52.0528C26.7363 52.0849 26.8644 52.3093 26.9924 52.4696ZM28.4006 51.123C28.2405 51.4436 28.0165 51.8284 27.6645 52.0208C27.5365 52.0528 27.3764 52.0528 27.2484 51.9887C27.1844 51.9246 27.0564 51.8605 27.0564 51.7322C27.0884 51.604 27.0244 51.4436 27.1524 51.3795C27.4084 51.2192 27.6645 51.0589 27.9205 50.8345C27.9845 50.8024 28.1125 50.7703 28.1445 50.8345C28.2726 50.9306 28.3686 50.9948 28.4006 51.123ZM44.4348 50.9948C44.4668 51.123 44.6588 51.2833 44.5308 51.4116C44.2748 51.604 43.9867 51.7322 43.6347 51.7001C43.3787 51.5078 43.4107 51.1551 43.1866 50.8986C43.1226 50.7062 42.8346 50.7062 42.8986 50.5138L42.9946 50.4497C43.3466 50.4497 43.6987 50.4497 44.0507 50.3856C44.4028 50.3535 44.3068 50.7703 44.4348 50.9948ZM64.6616 45.7686C64.8536 46.0251 65.0137 46.2816 65.1417 46.6022C65.1737 46.6663 65.1417 46.7304 65.1097 46.7946C65.0777 46.8587 65.0137 46.9228 64.9176 46.8587C64.6936 46.7946 64.7256 46.4419 64.4376 46.4739C64.2456 46.4739 64.1175 46.6342 63.9575 46.7304C63.6695 46.9869 63.2854 47.2434 63.2214 47.6282C63.1574 47.7564 63.1894 47.9809 63.0614 48.045C62.9974 48.0771 62.9014 48.0129 62.9014 47.9488C62.8694 47.4358 63.0294 46.9549 63.3814 46.6022C63.7335 46.3136 63.9895 45.8968 64.2776 45.5441C64.4696 45.5121 64.5976 45.6403 64.6616 45.7686ZM64.7896 50.0329C64.8536 50.1611 64.9817 50.3214 64.8856 50.4818C64.7576 50.5779 64.5336 50.5138 64.3736 50.5138C64.1815 50.4176 64.1175 50.1611 64.1175 49.9367C64.1175 49.8726 64.1175 49.8405 64.1815 49.7764C64.4056 49.7764 64.6296 49.8405 64.7896 50.0329ZM69.5903 40.2217C69.6863 40.35 69.5903 40.4782 69.5263 40.5744C69.0782 40.9912 68.5341 41.4401 68.2141 41.9531C68.0861 42.1134 67.9901 42.3058 67.9261 42.4982C67.9261 42.5302 67.8941 42.5302 67.8621 42.5302C67.766 42.2737 67.8941 41.9852 67.9581 41.7287C68.1821 41.1195 68.6942 40.5424 69.2382 40.1255C69.3023 40.0935 69.5263 40.0614 69.5903 40.2217ZM71.4145 38.1697C71.7666 38.3942 71.8946 38.8751 72.3107 38.9713C73.0148 39.1316 73.7189 39.2919 74.359 39.6125C74.807 39.837 75.2231 40.1576 75.6391 40.5103C76.0232 40.7027 76.5033 40.7027 76.9193 40.8309C77.5274 40.9912 78.0075 41.4401 78.5515 41.7928C79.2556 42.3379 80.2478 42.2737 81.0479 42.6264C82.3281 43.0432 83.3522 44.0372 84.5364 44.6143C85.1444 44.9349 86.0726 45.0632 86.6807 44.7105C87.0967 44.4219 87.3528 44.0372 87.2567 43.4921C87.0327 42.1775 85.5925 41.5042 84.9204 40.4141C84.7924 40.1576 84.6964 39.8049 84.7604 39.5164C85.0164 38.8751 85.6885 38.5224 86.2646 38.298C86.7127 38.0735 87.2887 38.1377 87.7048 37.8812C87.8648 37.785 87.9928 37.6567 88.0889 37.5605C88.1849 37.5605 88.1849 37.6567 88.2169 37.7208C88.3449 38.4903 88.2169 39.2919 87.5448 39.7408C87.2887 39.9332 86.9687 39.9973 86.6807 40.0614C86.4246 40.1576 85.9126 39.9652 85.9446 40.4141C86.0086 40.6385 86.2006 40.7668 86.3606 40.9271C87.2567 41.6645 88.0889 42.6264 88.1849 43.7807C88.2169 44.6784 87.6088 45.4479 86.8407 45.8327C86.2646 46.0571 85.5605 46.1533 84.9524 45.993C84.7924 45.9609 84.5364 45.8006 84.4084 46.0251C84.3763 46.2816 84.5364 46.4739 84.5364 46.6984C84.6004 47.1152 84.6004 47.6603 84.4724 48.0771C84.4083 48.3977 84.0883 48.7824 84.3763 49.1031C84.6644 49.5519 85.2405 49.4237 85.7205 49.4878C85.9766 49.5199 86.0726 49.8084 86.1366 50.0008C86.2326 50.2573 86.2326 50.5459 86.3286 50.7383C86.3286 51.2192 86.8727 51.4116 87.1287 51.7322C87.4488 52.0849 87.7368 52.6941 88.2809 52.662C88.4729 53.0468 88.5689 53.3995 88.6329 53.8483L88.5689 53.9125C88.1209 53.9125 87.5128 54.0407 87.1927 53.7201C86.8087 53.4636 86.6807 52.7582 86.1046 52.9506C85.8485 53.143 85.4965 53.2071 85.2085 53.0788C84.9204 52.9826 84.7284 52.7261 84.4724 52.5658C83.7042 51.9887 82.6801 51.7001 81.688 51.9246C81.1119 52.0849 80.6638 51.6681 80.2158 51.4116C79.6077 51.1551 79.4477 50.5138 79.3196 49.9688L79.2236 49.2954C79.2236 49.2313 79.2876 49.1672 79.3516 49.1351H79.4477C79.7997 49.9367 80.4718 50.8345 81.3359 51.123C82.136 51.4436 82.8721 51.0268 83.7363 51.1871C84.5364 51.2833 85.1765 51.7963 85.7845 52.2773C85.8485 52.2773 85.8805 52.2452 85.9126 52.1811V52.117C85.1765 51.1871 84.1523 50.7062 82.9682 50.8024C81.976 50.9948 81.0159 50.6741 80.4398 49.8405C80.1198 49.3596 79.8957 48.8466 79.7997 48.3015C79.7037 47.6603 79.5757 46.9549 79.3516 46.3777C79.2876 46.3457 79.2236 46.2816 79.1596 46.3136L79.0956 46.4098C79.1916 47.019 79.3837 47.7564 79.1596 48.3977C78.9996 48.9107 78.4875 49.1031 78.0075 49.1351C77.5274 49.1672 77.0793 49.071 76.5673 49.071C75.4151 49.0389 74.391 49.4878 73.2068 49.3916C73.3028 49.1031 73.4948 48.8145 73.3988 48.4939C73.3668 48.4298 73.2708 48.4298 73.2068 48.4298C72.9828 48.558 73.0148 48.8466 72.8867 49.0389C72.6307 49.4558 72.1506 49.8405 71.6706 49.9367C71.3185 50.1932 70.9985 50.5459 70.7104 50.8665C70.6144 50.9627 70.6144 51.1551 70.6464 51.2833C70.8705 51.8605 71.5426 51.9246 72.0546 52.0849C72.3107 52.117 72.5347 52.0208 72.6627 51.7963C72.8867 51.4436 72.9188 50.8665 73.4308 50.8024H74.551C74.647 50.8344 74.711 50.8986 74.775 50.9948L74.743 51.1551C74.487 51.4436 74.391 51.8605 74.0709 52.0528C73.8789 52.117 73.6549 52.0528 73.5268 52.2131C73.4628 52.5979 73.3668 53.0147 72.9828 53.2071C72.6947 53.4636 72.2787 53.3353 71.9586 53.2391C71.3505 53.0147 70.7425 52.8865 70.1344 52.6941C69.8783 52.63 69.7823 52.3093 69.4943 52.2452C69.2382 52.1811 68.9502 52.3735 68.7262 52.149C68.5982 51.8605 68.5341 51.6681 68.4701 51.3475C68.3741 51.1551 68.3101 50.9306 68.2781 50.7062C68.2461 50.5138 68.2781 50.3856 68.3421 50.2253L69.1742 48.7183C69.2382 48.6221 69.3023 48.5259 69.3983 48.4939C69.5903 48.5259 69.8143 48.6221 70.0063 48.7183L69.9743 48.8145L69.1102 50.1291C68.9182 50.5459 69.1102 51.0268 69.3023 51.3795C69.3343 51.4116 69.3663 51.4757 69.3983 51.4436C69.3663 51.1871 69.3343 50.9306 69.3983 50.6421C69.4623 50.3856 69.6223 50.1611 69.7503 49.9367L70.4224 48.9428C70.4864 48.7824 70.4864 48.5259 70.3584 48.3656C70.0704 48.0771 69.6543 47.9809 69.3983 47.5961C68.8542 46.8587 68.7902 45.993 68.7262 45.0632C68.7262 44.9991 68.6622 44.9029 68.5661 44.8708C68.5021 44.8387 68.4381 44.9349 68.4061 44.967C68.2461 45.5762 68.3421 46.3136 68.5021 46.8587C68.5982 47.2755 68.7902 47.6923 68.9822 48.0771C69.0142 48.1412 68.9502 48.2374 68.8862 48.2694C68.4381 48.3015 67.9901 48.2694 67.574 48.2053C66.9979 48.1091 66.5819 47.6603 66.1018 47.3076C66.0378 47.2755 66.0058 47.3396 65.9738 47.3717C66.1018 48.0129 66.8059 48.3977 67.0299 48.9748C67.1579 49.4558 67.638 49.8084 67.734 50.3214C67.734 50.3856 67.67 50.4818 67.606 50.5138C67.446 50.5459 67.286 50.4497 67.1259 50.5459C67.0939 50.8344 67.286 51.123 67.158 51.3795C66.9979 51.636 66.7739 51.9246 66.4859 51.9246C65.9098 51.7322 65.3337 51.4757 64.7576 51.3154C64.3416 51.2833 63.9255 51.3475 63.5415 51.3795C63.1574 51.3154 62.9014 50.9627 62.6133 50.7703C62.5173 50.7383 62.4213 50.7383 62.3573 50.8024C61.7172 51.4436 61.0131 52.149 60.053 52.117C59.989 52.117 59.957 52.0528 59.957 51.9887V51.9246C60.373 51.5398 60.8851 51.1551 61.0771 50.61C61.2051 50.1611 61.5892 49.8405 61.7492 49.4237C61.7812 49.3596 61.7172 49.3275 61.6532 49.2954L61.5572 49.3596C61.0771 49.8405 60.7251 50.3856 60.373 50.8986C60.021 51.2513 59.5089 51.4757 58.9648 51.3475C58.9008 51.3154 58.9008 51.2192 58.9328 51.1551C60.9171 49.9367 61.1411 47.7564 61.6852 45.7686C62.0692 44.454 62.3573 43.1074 63.3814 42.0493C64.9176 40.35 66.8379 39.356 68.5341 37.8812C68.7902 37.6567 69.0462 37.4323 69.3663 37.4323C70.1984 37.3682 70.8385 37.6888 71.4145 38.1697ZM89.6891 52.3414C89.8491 52.5658 89.7851 52.9185 89.8491 53.175C89.8811 53.3674 90.1371 53.5277 90.0091 53.7201L89.305 53.9445C89.177 53.9445 89.241 53.7842 89.177 53.7201C89.113 53.3033 89.017 53.0147 88.889 52.63C88.857 52.4055 89.081 52.2452 89.241 52.117C89.401 52.0528 89.5291 52.2452 89.6891 52.3414ZM88.0569 50.8986C88.3129 51.123 88.6649 51.2833 88.857 51.5719C88.889 51.7001 88.793 51.8284 88.729 51.9246C88.6329 52.0208 88.5049 52.0849 88.3449 52.0849C88.1849 52.0849 88.0568 51.9887 87.9608 51.8605C87.8008 51.604 87.5768 51.3795 87.5128 51.123C87.6088 50.9627 87.8328 50.7062 88.0569 50.8986ZM72.6307 50.6421C72.5987 50.9627 72.5027 51.2513 72.3747 51.5398C72.2787 51.7322 71.9906 51.6681 71.7986 51.636C71.6066 51.5719 71.2865 51.5398 71.2545 51.2513C71.2225 50.9948 71.3505 50.7383 71.4786 50.5459C71.7666 50.5138 72.1186 50.578 72.4067 50.5138C72.5347 50.5138 72.6307 50.5459 72.6307 50.6421Z" stroke="white" mask="url(#path-5-outside-2_13_191)"/>
</svg>
