<svg width="87" height="86" viewBox="0 0 87 86" fill="none" xmlns="http://www.w3.org/2000/svg">
<path d="M25.5385 67.8341H4.53394V62.8986L17.4538 47.3479H4.89062V41.2373H25.4989V46.4078L12.698 61.7235H25.4989V67.8341H25.5385Z" fill="white"/>
<path d="M53.0029 56.9447H34.1384C34.297 58.5507 34.8914 59.765 35.9615 60.6267C37.0315 61.4885 38.379 61.9585 39.9642 62.076C41.5494 62.1936 43.1743 61.9977 44.8388 61.4493C46.5033 60.9009 48.0093 60.0392 49.3172 58.9032L52.884 63.7604C50.9024 65.4055 48.9209 66.5415 46.86 67.2465C44.8388 67.9516 42.8176 68.3042 40.8361 68.3042C36.2785 68.3042 32.8702 67.0507 30.5716 64.5438C28.273 62.0369 27.1633 58.4724 27.1633 53.8502C27.1633 51.2258 27.6785 48.9539 28.7486 46.9954C29.8186 45.0369 31.3246 43.5484 33.2666 42.4516C35.2085 41.394 37.5467 40.8848 40.202 40.924C46.0278 41.0023 49.9116 43.235 51.8536 47.7005C52.4084 48.9931 52.7255 50.3641 52.9236 51.8917C53.0821 53.3802 53.1218 55.0645 53.0029 56.9447ZM40.8361 46.8387C38.6564 46.8387 36.9919 47.4263 35.8426 48.6014C34.6933 49.7765 34.1384 51.0691 34.1384 52.4793H47.4545C47.4545 51.03 46.8997 49.7373 45.7503 48.5622C44.6407 47.4263 42.9761 46.8387 40.8361 46.8387Z" fill="white"/>
<path d="M63.1094 68.069C60.3748 67.9123 58.314 67.168 56.9269 65.7579C55.5398 64.3478 54.8264 62.4284 54.8264 59.9215C54.8264 58.1197 55.302 56.5528 56.2135 55.2602C57.1647 53.9676 58.3932 52.9491 59.9389 52.2049C61.4845 51.4607 63.1886 50.9906 65.0909 50.8339C66.9932 50.6381 68.8955 50.7948 70.8375 51.2256V49.5805C70.8375 48.4445 70.3619 47.622 69.4504 47.1127C68.4992 46.6035 67.3896 46.3685 66.0421 46.4077C64.6946 46.4468 63.3472 46.6819 61.9997 47.1911C60.6522 47.6611 59.5822 48.3662 58.7499 49.2279L55.1435 45.3501C56.4909 44.0183 58.1158 42.9998 59.9785 42.2556C61.8412 41.5114 63.7831 41.0805 65.7647 40.963C67.7462 40.8455 69.6485 41.0805 71.4319 41.668C73.2154 42.2164 74.6817 43.1565 75.831 44.4491C76.7425 45.4284 77.2181 46.7602 77.337 48.4054C77.4559 50.0505 77.4955 51.8132 77.4955 53.7717V67.8339H70.8771V65.3662C69.7674 66.3846 68.5389 67.1289 67.1518 67.5206C65.8043 67.9123 64.4568 68.1081 63.1094 68.069ZM70.679 60.3132V55.7303C66.9536 55.4561 64.3379 55.6911 62.9112 56.4353C61.4448 57.1796 60.7315 58.3155 60.7315 59.8823C60.7315 60.8616 61.0882 61.6058 61.8015 62.0367C62.5149 62.4676 63.3868 62.7026 64.4568 62.6634C65.5269 62.6634 66.5969 62.4284 67.7462 62.0367C68.8163 61.645 69.8071 61.0574 70.679 60.3132Z" fill="white"/>
<path d="M46.9 30.7005C46.7415 30.8571 46.5829 31.0138 46.5037 31.1705C46.1866 31.6405 46.0281 32.1889 45.9885 32.7765L45.7903 37.712C45.7507 38.8871 46.3055 39.9055 47.2963 40.5322L49.3968 41.8249L49.5553 41.9032L51.4972 43.1175C52.488 43.7442 53.677 43.7834 54.7074 43.235L59.0668 40.924C59.582 40.6498 59.9783 40.2972 60.2558 39.8664C60.5728 39.3963 60.7313 38.8479 60.771 38.2604L60.9295 34.1866C60.9295 33.7558 61.088 33.4032 61.2862 33.0507C62.1977 31.6405 64.6548 31.053 65.8834 31.7581L65.9627 31.7972L70.5203 34.6175C71.8281 35.4401 73.3737 35.4793 74.7212 34.7742L80.4281 31.7581C81.1018 31.4055 81.6171 30.9355 82.0134 30.3479C82.4097 29.7212 82.6475 29.0161 82.6871 28.2327L82.9249 21.8479C82.9645 20.3203 82.2511 18.9885 80.9433 18.1659L75.4346 14.7581C74.1267 13.9355 72.5811 13.8963 71.2336 14.6014C71.2336 14.6014 64.8134 17.8917 63.9018 19.2627C63.5452 19.8111 63.347 20.3986 63.3074 20.9862C63.3074 21.0253 63.1092 26.4309 63.1092 26.4309C62.9903 27.3318 62.7525 28.076 62.3562 28.6244C61.4051 30.1129 59.5424 30.3087 56.6889 28.7811L55.2622 27.9193C54.43 27.4101 53.4788 27.1751 52.6465 27.5668L46.9 30.7005ZM65.7645 28.5069C66.1608 25.4124 66.359 21.2212 66.359 21.2212V21.182V21.1429C66.359 21.1037 66.3986 21.0253 66.4779 20.9078C66.8742 20.2811 72.7 17.265 72.7 17.265C73.0963 17.0691 73.453 17.0691 73.8493 17.3041L79.3581 20.712C79.7544 20.947 79.9129 21.2604 79.9129 21.6912L79.6751 28.076C79.6751 28.3111 79.5959 28.5069 79.5166 28.6636C79.4373 28.8203 79.2788 28.9378 79.0806 29.0553L73.3737 32.0714C72.9774 32.2673 72.6207 32.2673 72.2244 32.0323C72.1452 32.0323 68.182 29.5645 65.7645 28.5069ZM48.8816 37.9078C48.8816 37.9078 48.8816 37.8687 48.8816 37.8295L49.0401 32.9332C49.0401 32.894 49.0401 32.8548 49.0401 32.8548C49.0401 32.8548 49.0797 32.8157 49.1194 32.8157L53.4788 30.5046C53.5184 30.4654 53.5581 30.4654 53.5581 30.4654C53.5581 30.4654 53.5977 30.4654 53.6373 30.5046C53.6373 30.5046 56.6097 32.1889 58.1553 32.6198C57.8382 33.6382 57.759 38.1429 57.759 38.1429C57.759 38.182 57.759 38.2212 57.759 38.2212C57.759 38.2212 57.7194 38.2604 57.6797 38.2604L53.3203 40.5714C53.2806 40.6106 53.241 40.6106 53.241 40.6106C53.241 40.6106 53.2014 40.6106 53.1617 40.5714L48.9608 37.9862C48.8816 37.947 48.8816 37.9078 48.8816 37.9078Z" fill="white"/>
<path d="M49.8727 29.1338C49.8727 29.1338 47.4156 30.5831 46.5437 30.0739L46.7815 30.7006L48.9216 31.014L49.9124 29.7605L49.8727 29.1338Z" fill="white"/>
<path d="M45.9097 35.2445C45.9097 35.2445 46.1079 32.3459 45.1567 31.8758L45.8305 31.7583L47.1383 33.4426L46.4646 34.8919L45.9097 35.2445Z" fill="white"/>
<path d="M49.476 29.4862C48.2078 31.0922 45.5129 30.1913 45.6318 28.7028C45.711 27.5669 45.7507 27.0185 45.7507 27.0185C45.7903 26.0784 45.6714 25.5692 45.0769 25.06L43.888 24.0024L42.6991 22.9448C42.3027 22.5922 41.8272 22.4355 41.3516 22.4355C41.1138 22.4355 40.876 22.4747 40.6382 22.5531L39.0926 23.0623L37.5867 23.4932C36.8733 23.7282 36.3581 24.2766 36.1996 25.0208L35.8825 26.5876L35.5655 28.1544C35.4069 28.8987 35.6447 29.6037 36.2392 30.113L37.4281 31.1706L38.6171 32.2282C39.0134 32.5807 39.489 32.7374 39.9645 32.7374C40.2023 32.7374 40.4401 32.6982 40.6779 32.6199C40.6779 32.6199 42.5405 31.9931 43.6502 31.6406C44.8788 31.2489 46.7415 32.3849 45.9488 34.6176L49.476 29.4862ZM43.0161 29.1729C42.065 29.2512 40.123 30.1521 40.123 30.1521L38.0226 28.3503L38.5378 25.6475L41.1534 24.7466L43.2539 26.5484C43.2539 26.5484 42.9368 28.272 43.0161 29.1729Z" fill="white"/>
</svg>
